<?xml version="1.0" encoding="UTF-8"?>
<svg width="40px" height="40px" viewBox="0 0 40 40" version="1.1" xmlns="http://www.w3.org/2000/svg" xmlns:xlink="http://www.w3.org/1999/xlink">
    <!-- Generator: Sketch 61 (89581) - https://sketch.com -->
    <title>资产图标备份 4</title>
    <desc>Created with Sketch.</desc>
    <g id="页面-1" stroke="none" stroke-width="1" fill="none" fill-rule="evenodd">
        <g id="资产图标备份-4" transform="translate(-1062.000000, -406.000000)">
            <g id="Column" transform="translate(1063.000000, 409.000000)">
                <g transform="translate(0.136722, 0.929694)">
                    <polygon id="路径" fill="#6CBFFF" fill-rule="nonzero" points="0.00614024152 0.0417227048 37.7204576 0.0417227048 37.7204576 9.15600675 0.00614024152 9.15600675"></polygon>
                    <path d="M36.4633237,9.15604972 L36.4633237,16.0703312 L28.6061778,16.0703312 L28.6061778,9.15604972 L27.3490353,9.15604972 L27.3490353,16.0703312 L19.4918895,16.0703312 L19.4918895,9.15604972 L18.234747,9.15604972 L18.234747,16.0703312 L9.12046296,16.0703312 L9.12046296,9.15604972 L0.00617891344,9.15604972 L0.00617891344,32.0989397 L37.7204962,32.0989397 L37.7204962,9.15604972 L36.4633538,9.15604972 L36.4633237,9.15604972 Z M36.4633237,17.3274694 L36.4633237,23.9274771 L28.6061778,23.9274771 L28.6061778,17.3274694 L36.4633237,17.3274694 Z M27.3490396,17.3274694 L27.3490396,23.9274771 L19.4918938,23.9274771 L19.4918938,17.3274694 L27.3490396,17.3274694 Z M18.2347556,17.3274694 L18.2347556,23.9274771 L9.12047155,23.9274771 L9.12047155,17.3274694 L18.2347556,17.3274694 Z M9.12047155,30.8417585 L9.12047155,25.1846152 L18.2347556,25.1846152 L18.2347556,30.8417585 L9.12047155,30.8417585 Z M19.4918938,30.8417585 L19.4918938,25.1846152 L27.3490396,25.1846152 L27.3490396,30.8417585 L19.4918938,30.8417585 Z M28.6061778,30.8417585 L28.6061778,25.1846152 L36.4633237,25.1846152 L36.4633237,30.8417585 L28.6061778,30.8417585 Z" id="形状" fill="#D7EEFF" fill-rule="nonzero"></path>
                    <polygon id="矩形" fill="#FFFFFF" points="9 9.15600675 37 9.15600675 37 31 9 31"></polygon>
                    <polygon id="路径-2" stroke="#6CBFFF" points="0.5 0.0417227048 0.500457565 31.4970634 37.1894495 31.4970634 37.1894495 4.60076421e-13"></polygon>
                    <line x1="8.46488272" y1="9.15600675" x2="8.46488272" y2="31.1560067" id="路径-109" stroke="#6CBFFF"></line>
                </g>
            </g>
        </g>
    </g>
</svg>