<?xml version="1.0" encoding="UTF-8"?>
<svg width="40px" height="40px" viewBox="0 0 40 40" version="1.1" xmlns="http://www.w3.org/2000/svg" xmlns:xlink="http://www.w3.org/1999/xlink">
    <!-- Generator: Sketch 61 (89581) - https://sketch.com -->
    <title>资产图标备份 4</title>
    <desc>Created with Sketch.</desc>
    <g id="页面-1" stroke="none" stroke-width="1" fill="none" fill-rule="evenodd">
        <g id="资产图标备份-4" transform="translate(-720.000000, -405.000000)" fill="#35B88D">
            <path d="M736.537524,408.004228 C735.458647,409.912738 736.125218,412.331871 738.030574,413.422897 C739.935229,414.516423 742.368185,413.863331 743.46479,411.964125 C744.561454,410.064919 743.906313,407.638692 742.001658,406.545456 C741.084962,406.008433 739.990573,405.860556 738.963423,406.134737 C737.936507,406.408918 737.062617,407.082421 736.537524,408.004228 Z M757.438523,436.348397 C758.361109,434.8074 758.129004,432.840506 756.872841,431.555315 C755.616737,430.269833 753.651023,429.98751 752.082161,430.867216 C750.513532,431.746747 749.734174,433.568322 750.182987,435.306218 C750.451073,436.325021 751.117878,437.193852 752.034107,437.717907 C753.908262,438.811434 756.315674,438.201315 757.438523,436.348397 Z M752.541879,427.595127 C753.52459,427.37363 754.544741,427.37363 755.527686,427.595127 L755.527686,417.204097 L746.569973,412.08316 C746.276111,413.04858 745.765656,413.934217 745.077216,414.673372 L752.541879,418.931118 L752.541879,427.595127 Z M722.533758,432.328954 C722.00505,433.240526 721.861997,434.324516 722.136498,435.341457 C722.411233,436.358167 723.080486,437.224091 723.996949,437.747681 C724.911137,438.275109 725.998237,438.41752 727.017863,438.143804 C728.037723,437.870088 728.906131,437.202517 729.431224,436.288909 C730.147656,435.063671 730.152438,433.549656 729.443295,432.320115 C728.734386,431.090515 727.419963,430.332984 725.997537,430.334146 C724.56852,430.334554 723.248383,431.095051 722.533758,432.328954 Z M727.57987,427.6249 L727.57987,418.931118 L734.895299,414.643599 C734.217822,413.907875 733.708475,413.034275 733.402308,412.08316 L724.594005,417.204097 L724.594005,427.6249 C725.577008,427.404567 726.596868,427.404567 727.57987,427.6249 Z M747.346357,436.318682 L740.00107,440.546422 L732.656016,436.318682 C732.507948,436.84768 732.297421,437.35743 732.028868,437.836942 C731.806036,438.228123 731.546114,438.596974 731.252485,438.93861 L740.030929,444 L748.839406,438.93861 C748.155048,438.184917 747.645468,437.290441 747.346357,436.318682 Z" id="Connection"></path>
        </g>
    </g>
</svg>