<?xml version="1.0" encoding="UTF-8"?>
<svg width="40px" height="40px" viewBox="0 0 40 40" version="1.1" xmlns="http://www.w3.org/2000/svg" xmlns:xlink="http://www.w3.org/1999/xlink">
    <!-- Generator: Sketch 61 (89581) - https://sketch.com -->
    <title>资产图标备份 4</title>
    <desc>Created with Sketch.</desc>
    <g id="页面-1" stroke="none" stroke-width="1" fill="none" fill-rule="evenodd">
        <g id="资产图标备份-4" transform="translate(-821.000000, -406.000000)">
            <g id="Database" transform="translate(823.000000, 406.000000)">
                <path d="M18.0000256,0.761948526 C8.14762351,0.761948526 0.179016582,3.84004 0.179016582,7.63270262 L0.179016582,10.3810171 C0.179016582,10.8481997 0.306310363,11.3153393 0.535395512,11.7551766 C0.789983074,12.249842 1.17186657,12.6894987 1.65557924,13.129336 C2.21558301,13.6240014 2.92856002,14.091184 3.76865591,14.5034954 C4.78705085,15.0256866 6.00902766,15.4928262 7.35829955,15.8776548 C10.3369741,16.7571488 14.0029518,17.2518142 17.9999955,17.2518142 C21.997022,17.2518142 25.6630083,16.7571488 28.6416915,15.8776548 C29.9909634,15.4928713 31.2129832,15.0256866 32.2313351,14.5034954 C33.071431,14.0911865 33.784408,13.6240014 34.3444118,13.129336 C34.8281288,12.689503 35.2100097,12.249842 35.4645955,11.7551766 C35.6936803,11.3153436 35.8210183,10.848204 35.8210183,10.3810171 L35.8210183,7.63270262 C35.8210183,3.84000562 27.8524543,0.761948526 18.0000522,0.761948526 L18.0000256,0.761948526 Z M34.3444118,15.877556 C33.784408,16.3722214 33.071431,16.839404 32.2313351,17.2517154 C31.2129402,17.7739066 29.9909634,18.2410462 28.6416915,18.6258748 C25.6630169,19.5053688 21.9970392,20.0000342 17.9999955,20.0000342 C14.002969,20.0000342 10.3369827,19.5053688 7.35829955,18.6258748 C6.00902766,18.2410913 4.78700788,17.7739066 3.76865591,17.2517154 C2.92856002,16.8394065 2.21558301,16.3722214 1.65557924,15.877556 C1.17186227,15.437723 0.789981355,14.998062 0.535395512,14.5033965 C0.306310792,14.9430533 0.179016582,15.4101929 0.179016582,15.877556 L0.179016582,21.3741249 C0.179016582,21.8413074 0.306310363,22.308447 0.535395512,22.7482843 C0.789983074,23.2429497 1.17186657,23.6826064 1.65557924,24.1224437 C2.21558301,24.6171091 2.92856002,25.0842917 3.76865591,25.4966031 C4.78705085,26.0187943 6.00902766,26.4859339 7.35829955,26.8707625 C10.3369741,27.7502565 14.0029518,28.2449219 17.9999955,28.2449219 C21.997022,28.2449219 25.6630083,27.7502565 28.6416915,26.8707625 C29.9909634,26.485979 31.2129832,26.0187943 32.2313351,25.4966031 C33.071431,25.0842943 33.784408,24.6171091 34.3444118,24.1224437 C34.8281288,23.6826107 35.2100097,23.2429497 35.4645955,22.7482843 C35.6936803,22.3084513 35.8210183,21.8413117 35.8210183,21.3741249 L35.8210183,15.877556 C35.8210183,15.4102402 35.6937245,14.9430576 35.4645955,14.5033965 C35.210008,14.9981049 34.8281245,15.437766 34.3444118,15.877556 Z M34.3444118,26.8707797 C33.784408,27.3654451 33.071431,27.8326277 32.2313351,28.2449391 C28.9725684,29.9213496 23.8300324,30.9932536 18.0000256,30.9932536 C12.1700188,30.9932536 7.02742689,29.9213926 3.76871607,28.2449391 C2.92862017,27.8326303 2.21564317,27.3654451 1.65563939,26.8707797 C1.17192242,26.4309468 0.790041511,25.9912857 0.535455668,25.4966031 C0.306370949,25.936277 0.179076738,26.4034166 0.179076738,26.8707797 L0.179076738,32.3673916 C0.179076738,36.1600456 8.14768367,39.2381456 18.0000858,39.2381456 C27.8524878,39.2381456 35.8210948,36.1600542 35.8210948,32.3673916 L35.8210948,29.619077 L35.8210948,26.8707625 C35.8210948,26.4034467 35.693801,25.9362641 35.464672,25.4966031 C35.2100402,25.9912685 34.828158,26.4309253 34.344441,26.8707625 L34.3444118,26.8707797 Z" id="形状" fill="#5E7CE0" fill-rule="nonzero"></path>
                <path d="M4.99909588,28.8124093 C7.60360453,29.8913642 11.0778817,30.6410495 15.0000604,30.8967092 L14.9999213,39.1413062 C11.0817532,38.8854638 7.60100544,38.1370021 4.99893896,37.0673215 Z M4.99914828,17.8157441 C5.72357217,18.1134477 6.51614936,18.3857116 7.35829955,18.6258748 C9.57393946,19.2800706 12.1698546,19.7213461 14.9994244,19.9044977 L14.9994158,28.1493854 C12.1698418,27.9662338 9.57393306,27.5249583 7.35829955,26.8707625 C6.51614936,26.6305711 5.72358891,26.3583143 4.99916715,26.0606199 Z M15,17 L14.9994158,17.1562777 C14.3855741,17.1165452 13.7827292,17.0646649 13.1923778,17.0010982 L15,17 Z" id="形状结合" fill-opacity="0.2" fill="#FFFFFF" fill-rule="nonzero"></path>
                <circle id="椭圆形" fill="#FFFFFF" cx="30.25" cy="22.25" r="1.25"></circle>
                <circle id="椭圆形" fill="#FFFFFF" cx="30.25" cy="33.25" r="1.25"></circle>
            </g>
        </g>
    </g>
</svg>