<?xml version="1.0" encoding="UTF-8"?>
<svg width="40px" height="40px" viewBox="0 0 40 40" version="1.1" xmlns="http://www.w3.org/2000/svg" xmlns:xlink="http://www.w3.org/1999/xlink">
    <!-- Generator: Sketch 61 (89581) - https://sketch.com -->
    <title>资产图标备份 4</title>
    <desc>Created with Sketch.</desc>
    <g id="页面-1" stroke="none" stroke-width="1" fill="none" fill-rule="evenodd">
        <g id="资产图标备份-4" transform="translate(-975.000000, -406.000000)">
            <g id="table" transform="translate(976.000000, 409.000000)">
                <polygon id="路径" fill="#5E7CE0" fill-rule="nonzero" points="0.142862642 0.971417105 37.85718 0.971417105 37.85718 10.0857011 0.142862642 10.0857011"></polygon>
                <path d="M36.6000461,10.0857441 L36.6000461,17.0000256 L28.7429002,17.0000256 L28.7429002,10.0857441 L27.4857577,10.0857441 L27.4857577,17.0000256 L19.6286119,17.0000256 L19.6286119,10.0857441 L18.3714694,10.0857441 L18.3714694,17.0000256 L9.25718536,17.0000256 L9.25718536,10.0857441 L0.142901313,10.0857441 L0.142901313,33.0286341 L37.8572186,33.0286341 L37.8572186,10.0857441 L36.6000762,10.0857441 L36.6000461,10.0857441 Z M36.6000461,18.2571638 L36.6000461,24.8571715 L28.7429002,24.8571715 L28.7429002,18.2571638 L36.6000461,18.2571638 Z M27.485762,18.2571638 L27.485762,24.8571715 L19.6286162,24.8571715 L19.6286162,18.2571638 L27.485762,18.2571638 Z M18.371478,18.2571638 L18.371478,24.8571715 L9.25719395,24.8571715 L9.25719395,18.2571638 L18.371478,18.2571638 Z M9.25719395,31.7714529 L9.25719395,26.1143096 L18.371478,26.1143096 L18.371478,31.7714529 L9.25719395,31.7714529 Z M19.6286162,31.7714529 L19.6286162,26.1143096 L27.485762,26.1143096 L27.485762,31.7714529 L19.6286162,31.7714529 Z M28.7429002,31.7714529 L28.7429002,26.1143096 L36.6000461,26.1143096 L36.6000461,31.7714529 L28.7429002,31.7714529 Z" id="形状" fill="#BECBF5" fill-rule="nonzero" opacity="0.2"></path>
                <polygon id="路径-2" stroke="#5E7CE0" points="0.6367224 0.971417105 0.637179965 32.4267578 37.3261719 32.4267578 37.3261719 0.9296944"></polygon>
                <rect id="矩形" fill="#DEE6FF" x="1" y="10" width="36" height="22"></rect>
                <rect id="矩形" fill="#FFFFFF" x="28" y="21" width="9" height="11"></rect>
                <rect id="矩形" fill="#FFFFFF" x="19" y="21" width="9" height="11"></rect>
                <rect id="矩形" fill="#FFFFFF" x="1" y="10" width="9" height="11"></rect>
                <rect id="矩形" fill="#FFFFFF" x="10" y="21" width="9" height="11"></rect>
                <rect id="矩形" fill="#FFFFFF" x="1" y="21" width="9" height="11"></rect>
                <rect id="矩形" fill="#FFFFFF" x="18" y="10" width="9" height="11"></rect>
                <rect id="矩形" fill="#FFFFFF" x="28" y="10" width="9" height="11"></rect>
                <line x1="9.60160512" y1="10" x2="9.60160512" y2="32" id="路径-109" stroke="#859BE4"></line>
                <polyline id="路径-109" stroke="#859BE4" points="18.5 10 18.5 12.9499434 18.5 32"></polyline>
                <line x1="27.5" y1="10" x2="27.5" y2="32" id="路径-109" stroke="#859BE4"></line>
                <line x1="1" y1="21.4" x2="37" y2="21.4" id="路径-110" stroke="#859BE4"></line>
            </g>
        </g>
    </g>
</svg>