<?xml version="1.0" encoding="utf-8"?>
<!-- Generator: Adobe Illustrator 25.4.1, SVG Export Plug-In . SVG Version: 6.00 Build 0)  -->
<svg version="1.0" id="图层_1" xmlns="http://www.w3.org/2000/svg" xmlns:xlink="http://www.w3.org/1999/xlink" x="0px" y="0px"
	 viewBox="0 0 1240 253" style="enable-background:new 0 0 1240 253;" xml:space="preserve">
<style type="text/css">
	.st0{fill:#96AEFA;}
	.st1{fill:#DFDBDB;}
	.st2{fill-rule:evenodd;clip-rule:evenodd;fill:#DFDBDB;}
	.st3{fill:#EBEBEB;}
	.st4{fill-rule:evenodd;clip-rule:evenodd;fill:#EBEBEB;}
	.st5{fill:#252B3A;}
	.st6{fill-rule:evenodd;clip-rule:evenodd;fill:#96AEFA;}
	.st7{fill:#526ECC;}
</style>
<desc>Created with Sketch.</desc>
<g id="画板" transform="translate(-72.000000, -449.000000)">
	<g id="作业开发流程图" transform="translate(72.000000, 449.000000)">
		<g id="编组-15备份-4" transform="translate(92.000000, 88.000000)">
			<path id="路径-3备份-2" class="st0" d="M164.9-0.5l-2.5,0c-18-0.1-32.7,3.4-45.9,10.3l-0.9,0.5c-9.5,5-16.6,10.6-29.2,21.8
				l-4,3.6C70.6,46.2,64,51.3,55.2,56c-11.6,6.2-24.3,9.4-39.6,9.5l-0.9,0H0c-0.3,0-0.5,0.2-0.5,0.5c0,0.2,0.2,0.4,0.4,0.5l0.1,0
				h14.8c15.9,0,29-3.3,40.9-9.6l0.9-0.5c8.6-4.7,15.3-9.9,27.1-20.5l4-3.6c12.5-11.1,19.6-16.6,29.3-21.6
				C129.8,4,144.1,0.6,161.5,0.5l4.7,0c1.7,0,3.3,0,4.8,0c0.3,0,0.5-0.2,0.5-0.5s-0.2-0.5-0.5-0.5l-2.4,0
				C167.4-0.5,166.2-0.5,164.9-0.5z"/>
		</g>
		<g id="编组-14" transform="translate(113.000000, 107.000000)">
			
				<g id="编组-15备份-6" transform="translate(277.500000, 48.000000) rotate(-90.000000) translate(-277.500000, -48.000000) translate(233.500000, -25.500000)">
				<path id="路径-3备份-2_00000020362212192629004450000005303464934093581452_" class="st1" d="M83.6-0.5
					C74.2-0.7,66.7,7.1,60,22.1l-0.2,0.5C55,33.4,51.6,44.8,45.6,67.9l-3.5,13.6c-5.7,22.3-9,33.1-13.4,43.4
					c-6.1,14.1-12.8,21.4-20.8,21.6l-0.3,0H0c-0.3,0-0.5,0.2-0.5,0.5c0,0.2,0.2,0.4,0.4,0.5l0.1,0h7.6c8.6,0,15.5-7.4,21.8-21.7
					l0.5-1.2c4.4-10.5,7.8-21.7,13.7-45l2.3-9.1c6.3-24.4,9.8-36.2,14.6-47.1l0.2-0.3C67.3,8,74.6,0.4,83.6,0.5c1.5,0,3,0,4.4,0
					c0.3,0,0.5-0.2,0.5-0.5c0-0.3-0.2-0.5-0.5-0.5C86.6-0.5,85.1-0.5,83.6-0.5z"/>
			</g>
			
				<g id="编组-15备份-7" transform="translate(125.500000, 48.000000) rotate(-90.000000) translate(-125.500000, -48.000000) translate(81.500000, -25.500000)">
				<path id="路径-3备份-2_00000155834961419981696290000003778838325572737471_" class="st1" d="M4.4-0.5
					c9.4-0.2,17,7.6,23.7,22.5l0.2,0.5c4.9,10.9,8.5,22.7,14.6,46.1l3.7,14.4c5.5,21,8.8,31.9,13,41.7l0.3,0.7
					c6,13.8,12.5,20.9,20.2,21.1l0.3,0H88c0.3,0,0.5,0.2,0.5,0.5c0,0.2-0.2,0.4-0.4,0.5l-0.1,0h-7.6c-8.3,0-15-7.2-21.2-21.1
					l-0.5-1.2c-4.4-10.4-7.8-21.8-13.8-44.8l-2.7-10.6C36,46.1,32.4,34.2,27.6,23.3L27.5,23C20.8,8,13.4,0.4,4.4,0.5
					c-1.5,0-3,0-4.4,0c-0.3,0-0.5-0.2-0.5-0.5c0-0.3,0.2-0.5,0.5-0.5C1.4-0.5,2.9-0.5,4.4-0.5z"/>
			</g>
			<path id="矩形备份-11" class="st2" d="M201.5,1L201.5,1c0.3,0,0.5,0.2,0.5,0.5v91c0,0.3-0.2,0.5-0.5,0.5l0,0
				c-0.3,0-0.5-0.2-0.5-0.5v-91C201,1.2,201.2,1,201.5,1z"/>
			<path id="矩形备份-10" class="st2" d="M87.5,114.2h22c0.3,0,0.5,0.2,0.5,0.5l0,0c0,0.3-0.2,0.5-0.5,0.5h-22
				c-0.3,0-0.5-0.2-0.5-0.5l0,0C87,114.5,87.2,114.2,87.5,114.2z"/>
			<path id="形状结合" class="st2" d="M19,113.3v1l-3,0c-8.3,0-15,6.7-15,15c0,8.2,6.5,14.8,14.7,15l0.3,0h22
				c5.6,0,10.5-3.1,13.1-7.7l1.2,0c-2.7,5.2-8,8.7-14.2,8.7H16c-8.8,0-16-7.2-16-16s7.2-16,16-16H19z"/>
			<g id="编组-10备份-3" transform="translate(115.000000, 97.000000)">
				<path id="Rectangle-Copy-8复制-2备份" class="st3" d="M154,0c9.9,0,18,8.1,18,18s-8.1,18-18,18H18C8.1,36,0,27.9,0,18
					S8.1,0,18,0H154z M154,1H18C8.6,1,1,8.6,1,18c0,9.3,7.4,16.8,16.7,17l0.3,0h136c9.4,0,17-7.6,17-17c0-9.3-7.4-16.8-16.7-17
					L154,1z"/>
				<path id="Rectangle-Copy-8复制-2备份_00000157276310288803365750000015754936441234292650_" class="st4" d="M18,0h40
					c9.9,0,18,8.1,18,18l0,0c0,9.9-8.1,18-18,18H18C8.1,36,0,27.9,0,18l0,0C0,8.1,8.1,0,18,0z"/>
				<path id="Rectangle-Copy-8复制-2备份-4" class="st4" d="M102,0h52c9.9,0,18,8.1,18,18l0,0c0,9.9-8.1,18-18,18h-52
					c-9.9,0-18-8.1-18-18l0,0C84,8.1,92.1,0,102,0z"/>
				<path id="数据源" class="st5" d="M31,23.2l0.6-0.9c-0.8-0.6-1.5-1.3-2.1-2.3c0.6-1.4,1-3,1.1-5h0.7v-1.1h-3
					c0.1-0.5,0.2-1,0.2-1.6l-1.1-0.2c-0.2,2.2-0.7,4-1.4,5.3l0.7,0.9c0.2-0.4,0.4-0.8,0.6-1.2c0.3,1,0.7,2,1.1,2.8
					c-0.5,0.9-1.2,1.7-2.1,2.3l0.6,0.9c0.8-0.6,1.5-1.3,2.1-2.2C29.5,21.9,30.2,22.7,31,23.2z M21.1,17.8c0.9-0.6,1.6-1.4,2-2.3v2h1
					v-1.3c0.4,0.2,0.8,0.6,1.3,1l0.6-0.9c-0.7-0.3-1.3-0.7-1.9-0.9v-0.1h2.1v-1h-2.1v-2.2h-1v2.2h-2.3v1h1.5
					c-0.4,0.6-0.9,1.1-1.8,1.5L21.1,17.8z M25.2,14.2c0.4-0.5,0.7-1,0.9-1.5l-0.8-0.4c-0.2,0.5-0.5,1-0.9,1.5L25.2,14.2z M21.7,14.2
					l0.8-0.4c-0.2-0.5-0.4-1-0.7-1.5L21,12.6C21.2,13.1,21.5,13.6,21.7,14.2z M28.9,18.8c-0.4-0.9-0.8-2-1-3.3
					c0-0.2,0.1-0.3,0.1-0.5h1.5C29.5,16.4,29.3,17.7,28.9,18.8z M21,23.2c1.2-0.3,2.2-0.7,3-1.2c0.7,0.3,1.2,0.6,1.7,0.9l0.6-0.9
					c-0.5-0.2-0.9-0.5-1.4-0.7c0.6-0.6,0.9-1.2,1.2-1.9v-0.9h-2.4l0.2-0.6l0,0l-1.1-0.1c-0.1,0.2-0.2,0.5-0.3,0.7h-1.7v1H22
					c-0.2,0.5-0.5,0.9-0.8,1.4c0.6,0.2,1.1,0.4,1.6,0.6c-0.6,0.3-1.4,0.6-2.3,0.8L21,23.2z M23.8,20.8c-0.4-0.2-0.8-0.3-1.2-0.5
					c0.2-0.3,0.4-0.6,0.5-1H25C24.7,19.9,24.3,20.4,23.8,20.8z M34,23.1c0.7,0,1.1-0.4,1.1-1.2v-3.3c0.3-0.2,0.7-0.3,1-0.5V17
					c-0.3,0.2-0.7,0.3-1,0.5v-2.1h1.1v-1.1h-1.1v-2.2H34v2.2h-1.3v1.1H34v2.5c-0.5,0.2-1,0.3-1.6,0.5l0.3,1.1
					c0.4-0.1,0.8-0.3,1.3-0.4v2.6c0,0.3-0.1,0.5-0.4,0.5c-0.3,0-0.6,0-0.9-0.1l0.2,1.1H34z M36.3,23.2c0.8-1.5,1.2-3.3,1.4-5.3h2.2
					v1.2H38v4.1H39v-0.5h2.8v0.5h1.1v-4.1H41v-1.2h2.5v-1H41v-1.2h2.2v-3.1h-6.5v3.9c0,2.4-0.4,4.4-1.2,6L36.3,23.2z M42.1,14.7
					h-4.3v-1h4.3V14.7z M39.9,16.9h-2.1c0-0.1,0-0.3,0-0.4v-0.8h2.1V16.9z M41.9,21.7H39v-1.5h2.8V21.7z M46.8,14.9l0.8-0.8
					c-0.6-0.6-1.3-1.2-2.1-1.8l-0.8,0.7C45.6,13.8,46.3,14.4,46.8,14.9z M47.7,23.2c0.9-1.6,1.3-3.8,1.4-6.5v-3.1h2.6
					c-0.1,0.3-0.2,0.6-0.3,0.9h-1.6v4.4h2v2.9c0,0.3-0.1,0.4-0.4,0.4c-0.3,0-0.6,0-0.9-0.1l0.2,1h1c0.7,0,1.1-0.4,1.1-1.1v-3.2h1.9
					v-4.4h-2.2c0.1-0.3,0.2-0.6,0.3-0.9h2.6v-1H48v4.2c0,2.5-0.4,4.4-1.1,5.8L47.7,23.2z M46.5,17.8l0.8-0.8c-0.5-0.6-1.2-1.2-2-1.8
					L44.5,16C45.4,16.7,46,17.3,46.5,17.8z M53.7,16.3h-3v-0.9h3V16.3z M53.7,18h-3v-0.9h3V18z M45.7,23.2c0.6-1.3,1.2-2.7,1.7-4.2
					l-1-0.4c-0.5,1.4-1.1,2.8-1.8,4.2L45.7,23.2z M54.5,22.6l1-0.4c-0.3-0.9-0.7-1.8-1.2-2.6l-0.9,0.3
					C53.8,20.7,54.2,21.6,54.5,22.6z M49.7,22.6c0.5-0.8,1-1.7,1.2-2.8l-1-0.2c-0.2,0.9-0.6,1.7-1.2,2.4L49.7,22.6z"/>
				<path id="主机连接" class="st5" d="M115.4,22.8v-1.1h-4.8v-2.9h3.8v-1.1h-3.8v-2.5h4.4v-1.1h-4.4l0,0
					c-0.2-0.6-0.4-1.3-0.7-2l-1.1,0.3c0.3,0.5,0.5,1.1,0.7,1.7h-4.4v1.1h4.4v2.5h-3.8v1.1h3.8v2.9h-4.8v1.1H115.4z M119.5,23.2v-6
					c0.3,0.4,0.6,1,1,1.6l0.7-1c-0.6-0.6-1.1-1.2-1.6-1.8v-0.5h1.4v-1.1h-1.4v-2.2h-1.1v2.2h-1.7v1.1h1.6c-0.4,1.4-1,2.6-1.9,3.7
					l0.5,1.2c0.6-0.9,1.1-1.8,1.5-2.9v5.6H119.5z M121.1,23.3c0.6-0.9,0.9-1.8,1.2-2.8c0.2-0.9,0.3-2.1,0.3-3.4v-3.5h1.8v8.1
					c0,0.8,0.4,1.2,1.3,1.2h0.5c0.4,0,0.7-0.1,0.9-0.2c0.2-0.2,0.3-0.5,0.3-0.9c0.1-0.5,0.1-1.1,0.1-2l-1-0.3c0,1.2,0,2-0.1,2.1
					c0,0.1-0.1,0.2-0.1,0.2c-0.1,0-0.1,0.1-0.3,0.1h-0.4c-0.1,0-0.2-0.1-0.2-0.2v-9.1h-4.1v4.6c0,1.3-0.1,2.3-0.2,3
					c-0.2,0.8-0.6,1.6-1,2.3L121.1,23.3z M136.3,21.6v-2.1h3v-1.1h-3v-1.2h2.5v-1h-2.5V15h-1.1v1.3h-1.6c0.4-0.6,0.7-1.2,1-1.9h4.5
					v-1.1h-4.1c0.1-0.3,0.2-0.6,0.3-1l-1.1-0.3c-0.1,0.4-0.3,0.9-0.4,1.2H132v1.1h1.4c-0.4,0.7-0.7,1.4-1.2,1.9l0.3,1h2.6v1.2h-3.2
					v1.1h3.2v2.1H136.3z M130.8,15l0.8-0.8c-0.6-0.6-1.2-1.2-2-1.9l-0.8,0.8C129.7,13.7,130.4,14.4,130.8,15z M129.5,23.3
					c0.6-1.1,1-1.6,1.3-1.6c0.1,0,0.3,0.1,0.4,0.3c0.4,0.4,0.8,0.7,1.2,0.8c0.5,0.1,1.1,0.2,1.9,0.2c0.8,0,1.5,0,2.1,0h2.7l0.3-1.1
					c-0.3,0-0.8,0-1.4,0.1c-0.6,0-1.2,0-1.8,0c-0.9,0-1.7,0-2.4,0c-0.7,0-1.2-0.1-1.6-0.3c-0.3-0.2-0.6-0.4-0.9-0.7
					c-0.1-0.1-0.1-0.1-0.2-0.2v-4.5h-2.7v1.1h1.6v3.4c-0.5,0.2-1,0.9-1.6,1.8L129.5,23.3z M151.3,17v-1.1h-1.8
					c0.2-0.4,0.5-0.9,0.7-1.5l-0.7-0.2h1.6v-1h-2.6c-0.1-0.4-0.2-0.8-0.4-1.1l-1.2,0.2c0.1,0.3,0.3,0.6,0.4,0.9h-2.5v1h4.3
					c-0.2,0.6-0.5,1.2-0.8,1.7h-1c-0.3-0.6-0.5-1.2-0.8-1.7l-0.9,0.4c0.2,0.4,0.4,0.8,0.7,1.2h-1.7V17H151.3z M142,23.1
					c0.8,0,1.2-0.4,1.2-1.2v-3.4c0.3-0.1,0.6-0.3,0.9-0.4V17c-0.3,0.2-0.6,0.3-0.9,0.5v-2h0.9v-1.1h-0.9v-2.2H142v2.2h-1.4v1.1h1.4
					v2.5c-0.5,0.2-1.1,0.3-1.6,0.5l0.3,1.1c0.4-0.1,0.9-0.3,1.3-0.5v2.6c0,0.3-0.1,0.4-0.4,0.4c-0.3,0-0.6,0-0.9-0.1l0.3,1.1H142z
					 M144.7,23.3c1.7-0.3,2.9-0.8,3.7-1.3c0.9,0.4,1.7,0.9,2.4,1.3l0.6-0.9c-0.7-0.4-1.4-0.8-2.2-1.1c0.5-0.6,0.8-1.2,1-2h1.2v-1.1
					h-4c0.1-0.3,0.2-0.5,0.3-0.8l-1.1-0.1c-0.1,0.3-0.2,0.6-0.4,0.9h-2v1.1h1.4c-0.2,0.4-0.5,0.9-0.8,1.3c0.8,0.3,1.5,0.6,2.2,0.9
					c-0.7,0.4-1.7,0.6-3,0.9L144.7,23.3z M148.2,20.8c-0.6-0.3-1.2-0.5-1.8-0.7c0.2-0.3,0.4-0.6,0.6-0.9h2.2
					C149,19.8,148.6,20.3,148.2,20.8z"/>
			</g>
			<g id="编组-10备份" transform="translate(23.000000, 97.000000)">
				<path id="Rectangle-Copy-8复制-2备份_00000103260792244610210870000002919654066659929219_" class="st4" d="M18,0h24
					c9.9,0,18,8.1,18,18l0,0c0,9.9-8.1,18-18,18H18C8.1,36,0,27.9,0,18l0,0C0,8.1,8.1,0,18,0z"/>
				<path id="脚本" class="st5" d="M25.2,22.8l0.9-0.3c-0.2-1-0.4-2.1-0.8-3.3l-0.9,0.2c0.1,0.5,0.3,1.1,0.4,1.6
					c-0.4,0.1-0.9,0.2-1.3,0.3c0.3-0.8,0.6-1.9,0.9-3.2h1.5v-1h-1.2v-1.9h1.1v-1h-1.1v-1.6h-1v1.6h-1.1v1h1.1V17h-1.3v1h1.1
					c-0.3,1-0.6,2-0.9,3.1c-0.1,0.1-0.2,0.2-0.3,0.3l0.2,1c1.1-0.2,2-0.4,2.6-0.5L25.2,22.8z M19.2,23.2c0.4-1.1,0.7-2.4,0.7-4h1.1
					v2.6c0,0.2-0.1,0.4-0.3,0.4c-0.2,0-0.4,0-0.6,0l0.3,1H21c0.7,0,1-0.3,1-0.9v-9.7H19v6c0,1.6-0.2,2.9-0.6,4L19.2,23.2z
					 M27.2,23.2v-9.5h0.9v6.8c0,0.3-0.1,0.4-0.3,0.4l-0.4,0l0.3,1h0.5c0.7,0,1-0.4,1-1.2v-8h-2.9v10.5H27.2z M21.1,15.4H20v-1.9h1.1
					V15.4z M21.1,18.2H20v-1.8h1.1V18.2z M36.6,23.2v-2.4H39v-1.1h-2.5v-4.4h0c0.8,2.1,2.2,4.1,4.2,5.8l0.8-1
					c-1.9-1.4-3.3-3-4.1-4.8h3.7v-1.1h-4.6v-2.1h-1.2v2.1h-4.6v1.1h3.7c-0.9,2-2.2,3.6-4.1,4.9l0.7,1.1c2-1.6,3.5-3.6,4.4-6h0v4.4
					H33v1.1h2.4v2.4H36.6z"/>
			</g>
			<g id="编组-10备份-2" transform="translate(318.000000, 97.000000)">
				<path id="Rectangle-Copy-8复制-2备份_00000112598206602510935820000009411452679058745261_" class="st4" d="M18,0h24
					c9.9,0,18,8.1,18,18l0,0c0,9.9-8.1,18-18,18H18C8.1,36,0,27.9,0,18l0,0C0,8.1,8.1,0,18,0z"/>
				<path id="资源" class="st5" d="M28.8,17.4l0.4-1c-1.8-0.3-3-0.9-3.6-1.8c0.1-0.2,0.1-0.4,0.2-0.7h1.8
					c-0.1,0.4-0.3,0.8-0.5,1.1l1.1,0.3c0.2-0.6,0.4-1.2,0.5-1.7v-0.7H24c0.1-0.2,0.2-0.4,0.3-0.7l-1.1-0.1c-0.3,0.8-0.8,1.5-1.5,2.1
					l0.7,0.9c0.4-0.3,0.8-0.7,1.1-1.1h1.3c-0.2,0.6-0.4,1-0.8,1.4c-0.5,0.4-1.3,0.8-2.4,1l0.4,1c1.4-0.3,2.3-0.8,2.9-1.3
					c0.1-0.1,0.3-0.3,0.4-0.5C25.9,16.4,27.1,17,28.8,17.4z M20.9,14.1l0.6-0.9c-0.6-0.3-1.3-0.6-2-0.8l-0.6,0.9
					C19.6,13.4,20.2,13.7,20.9,14.1z M19.4,17.1c0.9-0.5,1.6-1.1,2.2-1.7L21,14.6c-0.6,0.6-1.4,1.1-2.3,1.6L19.4,17.1z M21.2,21.2
					v-2.7h5.6v2.5h1.2v-3.6h-7.9v3.7H21.2z M19.3,23.2c2.2-0.2,3.7-0.6,4.3-1.2c0.6-0.5,0.9-1.5,1.1-3l-1.1-0.1
					c-0.1,1.2-0.4,2-0.9,2.5c-0.6,0.5-1.8,0.8-3.7,0.9L19.3,23.2z M28.5,23.3l0.6-0.9c-1.3-0.6-2.7-1-4.2-1.4l-0.6,0.9
					C25.7,22.2,27.1,22.7,28.5,23.3z M32.8,14.9l0.8-0.8c-0.6-0.6-1.3-1.2-2.1-1.8l-0.8,0.7C31.6,13.8,32.3,14.4,32.8,14.9z
					 M33.7,23.2c0.9-1.6,1.3-3.8,1.4-6.5v-3.1h2.6c-0.1,0.3-0.2,0.6-0.3,0.9h-1.6v4.4h2v2.9c0,0.3-0.1,0.4-0.4,0.4
					c-0.3,0-0.6,0-0.9-0.1l0.2,1h1c0.7,0,1.1-0.4,1.1-1.1v-3.2h1.9v-4.4h-2.2c0.1-0.3,0.2-0.6,0.3-0.9h2.6v-1H34v4.2
					c0,2.5-0.4,4.4-1.1,5.8L33.7,23.2z M32.5,17.8l0.8-0.8c-0.5-0.6-1.2-1.2-2-1.8L30.5,16C31.4,16.7,32,17.3,32.5,17.8z M39.7,16.3
					h-3v-0.9h3V16.3z M39.7,18h-3v-0.9h3V18z M31.7,23.2c0.6-1.3,1.2-2.7,1.7-4.2l-1-0.4c-0.5,1.4-1.1,2.8-1.8,4.2L31.7,23.2z
					 M40.5,22.6l1-0.4c-0.3-0.9-0.7-1.8-1.2-2.6l-0.9,0.3C39.8,20.7,40.2,21.6,40.5,22.6z M35.7,22.6c0.5-0.8,1-1.7,1.2-2.8l-1-0.2
					c-0.2,0.9-0.6,1.7-1.2,2.4L35.7,22.6z"/>
			</g>
			<path id="路径-6备份-7" class="st1" d="M14.7,108.6c0.2-0.2,0.4-0.2,0.6,0l0.1,0.1l4.5,4.8c0.2,0.2,0.2,0.4,0.1,0.6l-0.1,0.1
				l-4.5,4.5c-0.2,0.2-0.5,0.2-0.7,0c-0.2-0.2-0.2-0.4-0.1-0.6l0.1-0.1l4.2-4.2l-4.2-4.4C14.5,109.2,14.5,108.9,14.7,108.6
				L14.7,108.6z"/>
			<path id="路径-6备份-8" class="st1" d="M91.8,109.6c-0.2-0.2-0.4-0.2-0.6,0l-0.1,0.1l-4.5,4.8c-0.2,0.2-0.2,0.4-0.1,0.6
				l0.1,0.1l4.5,4.5c0.2,0.2,0.5,0.2,0.7,0c0.2-0.2,0.2-0.4,0.1-0.6l-0.1-0.1l-4.2-4.2l4.2-4.4C92,110.2,92,109.9,91.8,109.6
				L91.8,109.6z"/>
			<path id="路径-6备份-10" class="st1" d="M192.6,9.3c-0.2-0.2-0.2-0.4,0-0.6l0.1-0.1l8.4-8c0.2-0.2,0.4-0.2,0.6-0.1l0.1,0.1
				l8,8c0.2,0.2,0.2,0.5,0,0.7c-0.2,0.2-0.4,0.2-0.6,0.1l-0.1-0.1l-7.7-7.7l-8.1,7.7C193.2,9.5,192.9,9.5,192.6,9.3L192.6,9.3z"/>
		</g>
		<g id="编组-13" transform="translate(618.000000, 107.500000)">
			
				<g id="编组-15备份-8" transform="translate(224.500000, 46.500000) rotate(-90.000000) translate(-224.500000, -46.500000) translate(178.500000, -11.500000)">
				<path id="路径-3备份-2_00000107563871803280722170000018437956422305322378_" class="st0" d="M86.9-0.5
					c-9.7-0.1-17.6,6.1-24.6,18.2L62,18.4c-4.7,8.4-8.3,17.4-14.3,35.2l-3.3,10c-6.1,18-9.5,26.7-14.1,34.9
					c-6.3,11.1-13.1,16.8-21.5,17l-0.4,0H0.5c-0.3,0-0.5,0.2-0.5,0.5c0,0.2,0.2,0.4,0.4,0.5l0.1,0h7.9c8.8,0,16-5.8,22.4-17l0.3-0.5
					c4.7-8.3,8.1-17,14.2-35.1l3.3-10c6.2-18.3,9.7-27.2,14.6-35.7C70,6.4,77.6,0.4,86.9,0.5c1.6,0,3.1,0,4.6,0
					C91.8,0.5,92,0.3,92,0c0-0.3-0.2-0.5-0.5-0.5C90-0.5,88.5-0.5,86.9-0.5z"/>
			</g>
			
				<g id="编组-15备份-9" transform="translate(102.500000, 46.500000) rotate(-90.000000) translate(-102.500000, -46.500000) translate(56.500000, -12.000000)">
				<path id="路径-3备份-2_00000173140268434636529550000008825664294644709820_" class="st0" d="M5.1,0
					c9.6-0.1,17.4,5.9,24.4,17.7l0.3,0.5c5.2,8.9,9,18.5,15.6,37.9l3.1,9.1c5.9,17.4,9.4,26.1,13.9,34.1
					c6.2,10.8,12.8,16.4,20.8,16.6l0.4,0h7.9c0.3,0,0.5,0.2,0.5,0.5c0,0.2-0.2,0.4-0.4,0.5l-0.1,0h-7.9c-8.6,0-15.7-5.8-22.1-17.1
					l-0.4-0.6c-4.5-8-8-16.9-13.9-34.3l-3.1-9.1c-6.4-18.7-10.1-28.1-15.1-36.7l-0.2-0.3C22,6.9,14.4,0.9,5.1,1C3.5,1,2,1,0.5,1
					C0.2,1,0,0.8,0,0.5C0,0.2,0.2,0,0.5,0C2,0,3.5,0,5.1,0z"/>
			</g>
			<path id="矩形备份-12" class="st6" d="M163.5,0.5L163.5,0.5c0.3,0,0.5,0.2,0.5,0.5v91c0,0.3-0.2,0.5-0.5,0.5l0,0
				c-0.3,0-0.5-0.2-0.5-0.5V1C163,0.7,163.2,0.5,163.5,0.5z"/>
			<g id="编组-10备份-7" transform="translate(120.000000, 96.500000)">
				<path id="Rectangle-Copy-8复制-2备份_00000012463871849140694200000007368543743483027376_" class="st0" d="M70,0
					c9.9,0,18,8.1,18,18s-8.1,18-18,18H18C8.1,36,0,27.9,0,18S8.1,0,18,0H70z M70,1H18C8.6,1,1,8.6,1,18c0,9.3,7.4,16.8,16.7,17
					l0.3,0h52c9.4,0,17-7.6,17-17c0-9.3-7.4-16.8-16.7-17L70,1z"/>
				<path id="删除作业" class="st7" d="M30,23.1c0.7,0,1.1-0.4,1.1-1.2v-9.7h-1v9.4c0,0.4-0.2,0.6-0.5,0.6c-0.4,0-0.9,0-1.4-0.1
					l0.2,1H30z M26.4,23.2c0.6,0,1-0.3,1-1v-4.3h0.6v-1h-0.6v-4.3h-2.7v4.3h-0.7v-4.3h-2.7v4.3h-0.6v1h0.6c0,1.8-0.3,3.3-0.8,4.5
					l0.8,0.7c0.6-1.4,0.9-3.1,1-5.3H23v3.9c0,0.3-0.1,0.4-0.4,0.4c-0.2,0-0.4,0-0.6,0l0.3,0.9h0.6c0.7,0,1-0.3,1-1v-4.3h0.7v0
					c0,1.8-0.2,3.3-0.5,4.5l0.8,0.7c0.4-1.3,0.7-3.1,0.7-5.3h0.8v4c0,0.3-0.1,0.4-0.3,0.4c-0.2,0-0.4,0-0.6,0l0.3,0.9H26.4z
					 M29.2,20.6v-7.4h-1v7.4H29.2z M26.4,16.9h-0.8v-3.3h0.8V16.9z M23,16.9h-0.8v-3.3H23V16.9z M39.5,23.1c0.7,0,1.1-0.4,1.1-1.2
					v-3.3h2.6v-1.1h-2.6v-1.2h1.4v-0.8c0.3,0.3,0.7,0.5,1.1,0.8l0.7-1c-1.4-0.8-2.5-1.8-3.2-3h-1.1c-0.8,1.2-1.9,2.3-3.2,3.1l0.6,1
					c0.4-0.2,0.7-0.5,1-0.7v0.8h1.5v1.2h-2.7v1.1h2.7v3c0,0.3-0.1,0.4-0.3,0.4c-0.3,0-0.7,0-1-0.1l0.3,1.1H39.5z M34,23.2v-9.6h1.4
					c-0.3,1-0.6,2.1-1.1,3.3c0.7,1,1.1,1.9,1.1,2.7c0,0.2,0,0.3-0.1,0.4c-0.1,0.1-0.3,0.1-0.5,0.1c-0.2,0-0.4,0-0.6-0.1l0.4,1.2
					c0.8,0,1.4-0.2,1.7-0.5c0.2-0.2,0.3-0.6,0.3-1.2c0-0.8-0.4-1.8-1.1-2.9c0.4-1.2,0.8-2.2,1.1-3.3v-0.9h-3.6v10.7H34z M41.6,15.3
					h-3.3c0.6-0.6,1.2-1.2,1.7-1.9C40.4,14.1,40.9,14.8,41.6,15.3z M42.4,22.5l1-0.6c-0.3-0.7-0.8-1.6-1.5-2.5L41,19.8
					C41.6,20.8,42,21.7,42.4,22.5z M37,22.5c0.6-0.8,1.2-1.7,1.6-2.7l-1-0.5c-0.5,1-1,1.8-1.6,2.5L37,22.5z M51.5,23.3v-2.7h3.4
					v-1.1h-3.4v-1.8h3.4v-1.1h-3.4v-1.7h3.9v-1.1h-4.9c0.2-0.5,0.4-0.9,0.5-1.4l-1.2-0.3c-0.7,2-1.5,3.6-2.5,4.8l0.8,1
					c0.7-0.8,1.3-1.8,1.9-3h0.4v8.4H51.5z M47,23.3v-8.1c0.5-0.8,0.9-1.7,1.2-2.6l-1.1-0.5c-0.6,1.8-1.5,3.4-2.7,4.7l0.4,1.2
					c0.4-0.4,0.8-0.8,1.1-1.2v6.4H47z M67.4,22.8v-1.1h-3.5v-9.4h-1.1v9.4h-1.4v-9.4h-1.1v9.4h-3.5v1.1H67.4z M58.4,20.2l1-0.3
					c-0.5-2.1-1-3.9-1.6-5.5l-1,0.3C57.5,16.5,58,18.4,58.4,20.2z M65.3,20.2c0.7-1.5,1.3-3.3,1.8-5.4l-1-0.3
					c-0.5,2.2-1.1,3.9-1.8,5.3L65.3,20.2z"/>
			</g>
			<g id="编组-10备份-8" transform="translate(240.000000, 96.500000)">
				<path id="Rectangle-Copy-8复制-2备份_00000159447040848604014990000005704524967816406955_" class="st0" d="M70,0
					c9.9,0,18,8.1,18,18s-8.1,18-18,18H18C8.1,36,0,27.9,0,18S8.1,0,18,0H70z M70,1H18C8.6,1,1,8.6,1,18c0,9.3,7.4,16.8,16.7,17
					l0.3,0h52c9.4,0,17-7.6,17-17c0-9.3-7.4-16.8-16.7-17L70,1z"/>
				<path id="导出作业" class="st7" d="M30,17.8c0.5,0,0.9-0.2,1-0.6c0.1-0.2,0.2-0.6,0.2-1.2l-1.1-0.3c0,0.5-0.1,0.8-0.2,0.9
					c-0.1,0.1-0.2,0.2-0.4,0.2h-6.3c-0.3,0-0.5-0.2-0.5-0.5v-0.6h6.9v-3h-8v4.1c0,0.7,0.4,1.1,1.2,1.1H30z M28.6,14.6h-5.7v-1h5.7
					V14.6z M27.7,23.3c0.8,0,1.2-0.4,1.2-1.1v-2.3h2.6v-1.1h-2.6v-0.6h-1.2v0.6h-7.2v1.1h7.2v2c0,0.2-0.2,0.4-0.5,0.4
					c-0.4,0-0.9,0-1.4-0.1l0.3,1.1H27.7z M24.6,22.6l0.9-0.9c-0.5-0.6-1.2-1.2-2-1.8l-0.8,0.8C23.5,21.4,24.2,22.1,24.6,22.6z
					 M34.3,23.2v-0.6h7.4v0.6h1.1v-4.8h-1.1v3.2h-3.1v-4.1h3.7v-4.3h-1.2v3.2h-2.5v-4.1h-1.2v4.1h-2.5v-3.2h-1.2v4.3h3.7v4.1h-3.1
					v-3.2h-1.1v4.8H34.3z M51.5,23.3v-2.7h3.4v-1.1h-3.4v-1.8h3.4v-1.1h-3.4v-1.7h3.9v-1.1h-4.9c0.2-0.5,0.4-0.9,0.5-1.4l-1.2-0.3
					c-0.7,2-1.5,3.6-2.5,4.8l0.8,1c0.7-0.8,1.3-1.8,1.9-3h0.4v8.4H51.5z M47,23.3v-8.1c0.5-0.8,0.9-1.7,1.2-2.6l-1.1-0.5
					c-0.6,1.8-1.5,3.4-2.7,4.7l0.4,1.2c0.4-0.4,0.8-0.8,1.1-1.2v6.4H47z M67.4,22.8v-1.1h-3.5v-9.4h-1.1v9.4h-1.4v-9.4h-1.1v9.4
					h-3.5v1.1H67.4z M58.4,20.2l1-0.3c-0.5-2.1-1-3.9-1.6-5.5l-1,0.3C57.5,16.5,58,18.4,58.4,20.2z M65.3,20.2
					c0.7-1.5,1.3-3.3,1.8-5.4l-1-0.3c-0.5,2.2-1.1,3.9-1.8,5.3L65.3,20.2z"/>
			</g>
			<g id="编组-10备份-6" transform="translate(0.000000, 96.500000)">
				<path id="Rectangle-Copy-8复制-2备份_00000119109368755188307180000014298897149622958508_" class="st0" d="M70,0
					c9.9,0,18,8.1,18,18s-8.1,18-18,18H18C8.1,36,0,27.9,0,18S8.1,0,18,0H70z M70,1H18C8.6,1,1,8.6,1,18c0,9.3,7.4,16.8,16.7,17
					l0.3,0h52c9.4,0,17-7.6,17-17c0-9.3-7.4-16.8-16.7-17L70,1z"/>
				<path id="测试运行" class="st7" d="M30.1,23.1c0.7,0,1.1-0.4,1.1-1.2v-9.7h-1.1v9.5c0,0.3-0.1,0.4-0.4,0.4
					c-0.4,0-0.8,0-1.2-0.1l0.2,1.1H30.1z M22.3,14.7l0.8-0.8c-0.5-0.5-1-1.1-1.7-1.6l-0.8,0.7C21.4,13.7,21.9,14.2,22.3,14.7z
					 M24.4,20.2v-6.5h2.2v6.4h1v-7.4h-4.3v7.5H24.4z M29.3,20.6v-7.4h-1v7.4H29.3z M23.4,23.3c0.9-0.4,1.5-1,1.9-1.8
					c0.4-0.8,0.6-1.9,0.7-3.3v-3.8H25v3.8c0,1.1-0.2,1.9-0.5,2.6c-0.3,0.6-0.9,1.1-1.7,1.5L23.4,23.3z M22.1,17.8l0.7-0.8
					c-0.4-0.6-1-1.2-1.6-1.7L20.4,16C21.1,16.7,21.7,17.2,22.1,17.8z M21.5,23.1c0.5-1.3,1-2.7,1.5-4.1l-1-0.4
					c-0.4,1.4-0.9,2.7-1.5,4.1L21.5,23.1z M27.3,23.2l0.8-0.7c-0.5-0.6-1.1-1.2-1.8-1.9l-0.7,0.7C26.4,22,26.9,22.6,27.3,23.2z
					 M42.4,14.1l0.8-0.6c-0.3-0.4-0.7-0.9-1.2-1.5l-0.8,0.5C41.7,13.2,42.1,13.7,42.4,14.1z M42.2,23.1c0.6,0,1.1-0.9,1.5-2.6
					l-0.9-0.7c-0.2,1.4-0.4,2.1-0.6,2.1c-0.3-0.1-0.6-0.8-0.8-2.1c-0.2-1.1-0.3-2.6-0.3-4.4h2.3v-1.1H41c0-0.7,0-1.4,0-2.1h-1.1
					c0,0.7,0,1.4,0,2.1h-3.7v1.1h3.7c0,1.5,0.1,2.8,0.3,3.9c0.2,1.2,0.4,2.2,0.8,3C41.4,22.8,41.8,23.1,42.2,23.1z M35.2,14.8
					l0.8-0.8c-0.5-0.6-1.1-1.2-1.9-1.8L33.3,13C34.1,13.7,34.7,14.3,35.2,14.8z M34.2,22.9c0.8-0.6,1.5-1.2,2.1-1.9L36,19.8
					c-0.3,0.3-0.6,0.6-0.9,0.9v-4.9h-2.7v1.1h1.6v4.4c0,0.2-0.1,0.4-0.3,0.6L34.2,22.9z M36.7,22.4c1.2-0.2,2.3-0.5,3.3-0.7v-1.1
					c-0.5,0.1-0.9,0.3-1.4,0.4v-3h1v-1.1h-3.2V18h1v3.2c-0.4,0.1-0.7,0.1-1.1,0.2L36.7,22.4z M46.8,14.9l0.8-0.8
					c-0.6-0.6-1.2-1.2-2-1.9L44.8,13C45.7,13.7,46.4,14.3,46.8,14.9z M54.5,13.8v-1.1h-5.6v1.1H54.5z M54.2,21.2l1-0.3
					c-0.5-1.4-1.1-2.7-1.7-3.8l-0.9,0.3c0.3,0.5,0.6,1.1,0.8,1.7c-0.9,0.2-2.1,0.4-3.4,0.6c0.5-0.8,1.1-1.8,1.6-3.3h3.7v-1.1h-7.2
					v1.1h2.4c-0.9,2.2-1.6,3.3-2.1,3.5l0.3,1c2.1-0.2,3.8-0.5,5.1-0.8C54,20.5,54.1,20.9,54.2,21.2z M45.5,23.3
					c0.6-1.1,1-1.6,1.3-1.6c0.1,0,0.3,0.1,0.4,0.3c0.4,0.4,0.8,0.7,1.2,0.8c0.5,0.1,1.1,0.2,1.9,0.2c0.8,0,1.5,0,2.1,0h2.8l0.3-1.1
					c-0.3,0-0.8,0-1.4,0.1c-0.6,0-1.2,0-1.8,0c-0.9,0-1.7,0-2.4,0c-0.7,0-1.2-0.1-1.6-0.3c-0.3-0.2-0.6-0.4-0.9-0.7
					c-0.1-0.1-0.1-0.1-0.2-0.2v-4.5h-2.7v1.1h1.6v3.4c-0.5,0.2-1,0.9-1.6,1.8L45.5,23.3z M56.8,16.3c1.5-1.1,2.6-2.2,3.3-3.6l-1-0.5
					c-0.6,1.1-1.4,2.1-2.6,2.9L56.8,16.3z M66.9,13.9v-1.1H61v1.1H66.9z M59.4,23.2v-5.9c0.5-0.6,0.9-1.2,1.2-1.8l-1-0.5
					c-0.6,1.3-1.7,2.4-3,3.4l0.3,1.1c0.5-0.3,1-0.7,1.4-1.1v4.8H59.4z M64.3,23.2c0.9,0,1.3-0.4,1.3-1.2v-5.1h1.9v-1.1h-6.7v1.1h3.6
					v4.8c0,0.3-0.2,0.4-0.5,0.4c-0.5,0-1,0-1.6-0.1l0.3,1.1H64.3z"/>
			</g>
			<path id="路径-6备份-4" class="st0" d="M168.6,87.5c0.2,0.2,0.2,0.4,0,0.6l-0.1,0.1l-4.8,4.5c-0.2,0.2-0.4,0.2-0.6,0.1
				l-0.1-0.1l-4.5-4.5c-0.2-0.2-0.2-0.5,0-0.7c0.2-0.2,0.4-0.2,0.6-0.1l0.1,0.1l4.2,4.2l4.4-4.2C168.1,87.3,168.4,87.3,168.6,87.5
				L168.6,87.5z"/>
			<path id="路径-6备份-6" class="st0" d="M287.6,87.5c0.2,0.2,0.2,0.4,0,0.6l-0.1,0.1l-4.8,4.5c-0.2,0.2-0.4,0.2-0.6,0.1
				l-0.1-0.1l-4.5-4.5c-0.2-0.2-0.2-0.5,0-0.7c0.2-0.2,0.4-0.2,0.6-0.1l0.1,0.1l4.2,4.2l4.4-4.2C287.1,87.3,287.4,87.3,287.6,87.5
				L287.6,87.5z"/>
			<path id="路径-6备份-5" class="st0" d="M49.6,87.5c0.2,0.2,0.2,0.4,0,0.6l-0.1,0.1l-4.8,4.5c-0.2,0.2-0.4,0.2-0.6,0.1
				l-0.1-0.1l-4.5-4.5c-0.2-0.2-0.2-0.5,0-0.7c0.2-0.2,0.4-0.2,0.6-0.1l0.1,0.1l4.2,4.2l4.4-4.2C49.1,87.3,49.4,87.3,49.6,87.5
				L49.6,87.5z"/>
		</g>
		<g id="编组-15备份-5" transform="translate(92.000000, 17.000000)">
			<path id="路径-3备份-2_00000010269212528999577630000017283871051392058779_" class="st0" d="M6.1-0.5l2.5,0
				c18-0.1,32.7,3.4,45.9,10.3l0.9,0.5c9.5,5,16.6,10.6,29.2,21.8l4,3.6C100.4,46.2,107,51.3,115.8,56c11.6,6.2,24.3,9.4,39.6,9.5
				l0.9,0H171c0.3,0,0.5,0.2,0.5,0.5c0,0.2-0.2,0.4-0.4,0.5l-0.1,0h-14.8c-15.9,0-29-3.3-40.9-9.6l-0.9-0.5
				c-8.6-4.7-15.3-9.9-27.1-20.5l-4-3.6C70.8,21.1,63.7,15.7,54,10.7C41.2,4,26.9,0.6,9.5,0.5l-4.7,0c-1.7,0-3.3,0-4.8,0
				c-0.3,0-0.5-0.2-0.5-0.5S-0.3-0.5,0-0.5l2.4,0C3.6-0.5,4.8-0.5,6.1-0.5z"/>
		</g>
		<path id="矩形备份-5" class="st6" d="M92.5,85h173c0.3,0,0.5,0.2,0.5,0.5l0,0c0,0.3-0.2,0.5-0.5,0.5h-173
			c-0.3,0-0.5-0.2-0.5-0.5l0,0C92,85.2,92.2,85,92.5,85z"/>
		<g id="编组-20" transform="translate(362.000000, 80.750000)">
			<path id="矩形备份-6" class="st6" d="M0.5,4.8h123c0.3,0,0.5,0.2,0.5,0.5s-0.2,0.5-0.5,0.5H0.5C0.2,5.8,0,5.5,0,5.2
				S0.2,4.8,0.5,4.8z"/>
			<path id="路径-6" class="st0" d="M120.2,0.4c0.2-0.2,0.5-0.2,0.6,0l0.1,0.1l4,4.6c0.1,0.2,0.2,0.4,0,0.6l-0.1,0.1l-4,4.4
				c-0.2,0.2-0.5,0.2-0.7,0c-0.2-0.2-0.2-0.4-0.1-0.6l0.1-0.1l3.7-4.1l-3.7-4.3C120,0.9,120,0.6,120.2,0.4L120.2,0.4z"/>
		</g>
		<g id="编组-20备份" transform="translate(611.000000, 80.750000)">
			<path id="矩形备份-6_00000036210769298798795710000014481005037493172389_" class="st6" d="M0.5,4.8h122
				c0.3,0,0.5,0.2,0.5,0.5s-0.2,0.5-0.5,0.5H0.5C0.2,5.8,0,5.5,0,5.2S0.2,4.8,0.5,4.8z"/>
			<path id="路径-6_00000125574552999454014980000015903045953180180138_" class="st0" d="M119.2,0.4c0.2-0.2,0.5-0.2,0.6,0
				l0.1,0.1l4,4.6c0.1,0.2,0.2,0.4,0,0.6l-0.1,0.1l-4,4.4c-0.2,0.2-0.5,0.2-0.7,0c-0.2-0.2-0.2-0.4-0.1-0.6l0.1-0.1l3.7-4.1
				l-3.7-4.3C119,0.9,119,0.6,119.2,0.4L119.2,0.4z"/>
		</g>
		<g id="编组-20备份-2" transform="translate(831.000000, 80.750000)">
			<path id="矩形备份-6_00000127036876052168861210000000278666298616660402_" class="st6" d="M0.5,4.8h123
				c0.3,0,0.5,0.2,0.5,0.5s-0.2,0.5-0.5,0.5H0.5C0.2,5.8,0,5.5,0,5.2S0.2,4.8,0.5,4.8z"/>
			<path id="路径-6_00000132066343325078948040000007016953627094837404_" class="st0" d="M120.2,0.4c0.2-0.2,0.5-0.2,0.6,0
				l0.1,0.1l4,4.6c0.1,0.2,0.2,0.4,0,0.6l-0.1,0.1l-4,4.4c-0.2,0.2-0.5,0.2-0.7,0c-0.2-0.2-0.2-0.4-0.1-0.6l0.1-0.1l3.7-4.1
				l-3.7-4.3C120,0.9,120,0.6,120.2,0.4L120.2,0.4z"/>
		</g>
		<g id="编组-20备份-3" transform="translate(1052.000000, 81.000000)">
			<path id="矩形备份-6_00000070815283918895234590000006822270368905026442_" class="st2" d="M0.5,4.8h122
				c0.3,0,0.5,0.2,0.5,0.5s-0.2,0.5-0.5,0.5H0.5C0.2,5.8,0,5.5,0,5.2S0.2,4.8,0.5,4.8z"/>
			<path id="路径-6_00000169538319975243621230000010539643324403762312_" class="st1" d="M119.2,0.4c0.2-0.2,0.5-0.2,0.6,0
				l0.1,0.1l4,4.6c0.1,0.2,0.2,0.4,0,0.6l-0.1,0.1l-4,4.4c-0.2,0.2-0.5,0.2-0.7,0c-0.2-0.2-0.2-0.4-0.1-0.6l0.1-0.1l3.7-4.1
				l-3.7-4.3C119,0.9,119,0.6,119.2,0.4L119.2,0.4z"/>
		</g>
		<g id="编组-2" transform="translate(0.000000, 68.000000)">
			<path id="Rectangle-Copy-8复制-2" class="st0" d="M70,0c9.9,0,18,8.1,18,18s-8.1,18-18,18H18C8.1,36,0,27.9,0,18S8.1,0,18,0H70
				z M70,1H18C8.6,1,1,8.6,1,18c0,9.3,7.4,16.8,16.7,17l0.3,0h52c9.4,0,17-7.6,17-17c0-9.3-7.4-16.8-16.7-17L70,1z"/>
			<path id="复制作业" class="st7" d="M21.4,23.3c2-0.1,3.7-0.4,5.1-0.9c1.4,0.5,2.9,0.8,4.6,0.9l0.3-1c-1.3,0-2.4-0.2-3.5-0.4
				c0.9-0.5,1.5-1,2.1-1.7v-0.8h-5.3c0.2-0.2,0.3-0.4,0.5-0.6h4.7v-4H23c0.1-0.2,0.3-0.4,0.4-0.6h7.4v-1h-6.9
				c0.1-0.2,0.2-0.5,0.3-0.7L23.1,12c-0.4,1.3-1.2,2.4-2.4,3.3l0.7,0.9c0.4-0.3,0.8-0.7,1.2-1.1v3.4h1.4c-0.6,0.8-1.6,1.4-2.8,1.9
				l0.6,1c0.6-0.3,1.1-0.6,1.6-0.9c0.6,0.5,1.2,0.9,1.9,1.2c-1.2,0.3-2.6,0.5-4.2,0.5L21.4,23.3z M28.8,16.1h-5.2v-0.7h5.2V16.1z
				 M28.8,17.7h-5.2V17h5.2V17.7z M26.5,21.3c-0.9-0.3-1.6-0.7-2.3-1.2h4.4C28,20.6,27.3,21,26.5,21.3z M36.5,23.2v-4.2h1.2V21
				c0,0.3-0.2,0.4-0.5,0.4l-0.5,0l0.3,1.1h0.6c0.8,0,1.2-0.4,1.2-1.2V18h-2.3v-1H39v-1.1h-2.5v-1.3h2.1v-1h-2.1v-1.4h-1.1v1.4h-1.1
				c0.1-0.3,0.1-0.6,0.2-0.9l-1.1-0.2c-0.2,1.1-0.5,2-1.1,2.6l0.9,0.7c0.3-0.3,0.5-0.7,0.7-1.1h1.4v1.3h-2.8V17h2.8v1h-2.3v4.5h1.1
				v-3.4h1.2v4.2H36.5z M41.9,23.1c0.8,0,1.2-0.4,1.2-1.2v-9.7H42v9.4c0,0.3-0.2,0.5-0.5,0.5c-0.5,0-1.1,0-1.6-0.1l0.3,1.1H41.9z
				 M40.7,20.6v-7.3h-1.1v7.3H40.7z M51.5,23.3v-2.7h3.4v-1.1h-3.4v-1.8h3.4v-1.1h-3.4v-1.7h3.9v-1.1h-4.9c0.2-0.5,0.4-0.9,0.5-1.4
				l-1.2-0.3c-0.7,2-1.5,3.6-2.5,4.8l0.8,1c0.7-0.8,1.3-1.8,1.9-3h0.4v8.4H51.5z M47,23.3v-8.1c0.5-0.8,0.9-1.7,1.2-2.6l-1.1-0.5
				c-0.6,1.8-1.5,3.4-2.7,4.7l0.4,1.2c0.4-0.4,0.8-0.8,1.1-1.2v6.4H47z M67.4,22.8v-1.1h-3.5v-9.4h-1.1v9.4h-1.4v-9.4h-1.1v9.4h-3.5
				v1.1H67.4z M58.4,20.2l1-0.3c-0.5-2.1-1-3.9-1.6-5.5l-1,0.3C57.5,16.5,58,18.4,58.4,20.2z M65.3,20.2c0.7-1.5,1.3-3.3,1.8-5.4
				l-1-0.3c-0.5,2.2-1.1,3.9-1.8,5.3L65.3,20.2z"/>
		</g>
		<g id="编组-10" transform="translate(270.000000, 68.000000)">
			<path id="Rectangle-Copy-8复制-2备份_00000078037853932265424550000011824321257421259151_" class="st0" d="M70,0
				c9.9,0,18,8.1,18,18s-8.1,18-18,18H18C8.1,36,0,27.9,0,18S8.1,0,18,0H70z M70,1H18C8.6,1,1,8.6,1,18c0,9.3,7.4,16.8,16.7,17
				l0.3,0h52c9.4,0,17-7.6,17-17c0-9.3-7.4-16.8-16.7-17L70,1z"/>
			<path id="编辑作业" class="st7" d="M26.5,23.2v-2.6h0.7V23H28v-2.4h0.7V23h0.8v-2.4h0.7v1.4c0,0.2-0.1,0.3-0.3,0.3l-0.5,0
				l0.2,0.9h0.5c0.6,0,0.9-0.3,0.9-0.9v-4.9h-5.5l0-0.8h5.4v-3.3h-2.7c-0.1-0.5-0.3-0.9-0.4-1.2l-1.2,0.2c0.2,0.3,0.3,0.7,0.5,1
				h-2.7v3c0,2.5-0.5,4.6-1.4,6.2l0.8,0.7c0.8-1.4,1.3-2.9,1.5-4.7v4.7H26.5z M20.9,20.1c1-0.1,2-0.4,3.1-0.7v-1
				c-0.6,0.2-1.2,0.4-1.8,0.5c0.6-0.8,1.4-2.1,2.3-3.9l-1-0.4c-0.2,0.4-0.4,0.8-0.6,1.2c-0.4,0.1-0.8,0.1-1.2,0.2
				c0.5-0.9,1.1-2,1.6-3.4l-1.1-0.4c-0.4,1.3-0.8,2.4-1.4,3.5c-0.1,0.2-0.3,0.3-0.5,0.4l0.3,1c0.6-0.1,1.1-0.2,1.7-0.3
				c-0.5,0.9-0.9,1.6-1.3,2c-0.1,0.1-0.3,0.3-0.5,0.3L20.9,20.1z M30.1,15.6h-4.4v-1.3h4.4V15.6z M27.2,19.7h-0.7v-1.4h0.7V19.7z
				 M28.7,19.7H28v-1.4h0.7V19.7z M30.2,19.7h-0.7v-1.4h0.7V19.7z M20.8,22.6c1.1-0.3,2-0.6,2.8-1v-1.1c-0.9,0.4-1.8,0.8-3,1
				L20.8,22.6z M35.9,23.2v-2.6c0.5-0.1,0.9-0.2,1.4-0.3v-1.1c-0.4,0.1-0.9,0.2-1.4,0.3v-1.4h1.2v-1h-1.2v-1.7h-1.1v1.7h-0.9
				c0.3-0.7,0.5-1.5,0.8-2.4h2.7v-1.1h-2.4c0.1-0.5,0.2-0.9,0.3-1.4l-1.1-0.2c-0.1,0.6-0.2,1.1-0.3,1.6h-1.2v1.1h0.9
				c-0.3,1-0.5,1.8-0.8,2.4l0.3,1h1.8v1.6c-0.7,0.1-1.5,0.2-2.3,0.3l0.2,1.1c0.7-0.1,1.4-0.2,2.1-0.3v2.4H35.9z M42.8,15.2v-2.7
				h-4.9v2.7H42.8z M41.8,14.4H39v-0.9h2.7V14.4z M42.6,23.3v-1.5l0.9-0.2v-1c-0.3,0-0.6,0.1-0.9,0.2v-4h0.8v-1h-6.3v1H38v4.6
				c-0.3,0-0.7,0-1.1,0.1l0.1,1c1.6-0.1,3.1-0.3,4.5-0.5v1.3H42.6z M41.6,17.6H39v-0.8h2.5V17.6z M41.6,19.4H39v-0.8h2.5V19.4z
				 M39,21.3v-1h2.5V21C40.8,21.1,39.9,21.2,39,21.3z M51.5,23.3v-2.7h3.4v-1.1h-3.4v-1.8h3.4v-1.1h-3.4v-1.7h3.9v-1.1h-4.9
				c0.2-0.5,0.4-0.9,0.5-1.4l-1.2-0.3c-0.7,2-1.5,3.6-2.5,4.8l0.8,1c0.7-0.8,1.3-1.8,1.9-3h0.4v8.4H51.5z M47,23.3v-8.1
				c0.5-0.8,0.9-1.7,1.2-2.6l-1.1-0.5c-0.6,1.8-1.5,3.4-2.7,4.7l0.4,1.2c0.4-0.4,0.8-0.8,1.1-1.2v6.4H47z M67.4,22.8v-1.1h-3.5v-9.4
				h-1.1v9.4h-1.4v-9.4h-1.1v9.4h-3.5v1.1H67.4z M58.4,20.2l1-0.3c-0.5-2.1-1-3.9-1.6-5.5l-1,0.3C57.5,16.5,58,18.4,58.4,20.2z
				 M65.3,20.2c0.7-1.5,1.3-3.3,1.8-5.4l-1-0.3c-0.5,2.2-1.1,3.9-1.8,5.3L65.3,20.2z"/>
		</g>
		<g id="编组-10备份-5" transform="translate(739.000000, 68.000000)">
			<path id="Rectangle-Copy-8复制-2备份_00000072959919923471069980000001512457248560443572_" class="st0" d="M70,0
				c9.9,0,18,8.1,18,18s-8.1,18-18,18H18C8.1,36,0,27.9,0,18S8.1,0,18,0H70z M70,1H18C8.6,1,1,8.6,1,18c0,9.3,7.4,16.8,16.7,17
				l0.3,0h52c9.4,0,17-7.6,17-17c0-9.3-7.4-16.8-16.7-17L70,1z"/>
			<path id="保存作业" class="st7" d="M23,23.3v-8.2c0.4-0.8,0.8-1.6,1.1-2.5L23,12.1c-0.6,1.8-1.4,3.5-2.6,4.9l0.4,1.2
				c0.4-0.4,0.8-0.9,1.1-1.3v6.4H23z M28,23.2v-4.4h0.1c0.7,1.5,1.6,2.8,2.7,3.8l0.7-1c-1.1-0.8-1.9-1.8-2.6-2.8h2.3v-1.1H28v-1.1
				h2.4v-4h-5.8v4h2.3v1.1h-3.2v1.1h2.2c-0.7,1.2-1.5,2.1-2.5,2.8l0.6,1c1.1-0.9,2.1-2.2,2.8-3.9h0.1v4.4H28z M29.2,15.5h-3.6v-1.8
				h3.6V15.5z M35.2,23.2v-6.1c0.6-0.9,1.2-1.8,1.6-2.8h6.4v-1.1h-6c0.1-0.3,0.2-0.7,0.3-1l-1.2-0.1c-0.1,0.4-0.2,0.8-0.4,1.2h-3.2
				v1.1h2.7c-0.8,1.6-1.8,3-3.2,4.2l0.7,0.9c0.3-0.3,0.7-0.6,1-0.9v4.7H35.2z M39.3,23.2c0.8,0,1.2-0.4,1.2-1.2v-2h2.9v-1.1h-2.9
				v-0.5c0.8-0.5,1.5-1.1,2.1-1.7v-1H37v1h4.3c-0.6,0.5-1.2,0.9-1.8,1.3v1H36V20h3.4v1.6c0,0.4-0.2,0.6-0.6,0.6c-0.5,0-0.9,0-1.3,0
				l0.3,1.1H39.3z M51.5,23.3v-2.7h3.4v-1.1h-3.4v-1.8h3.4v-1.1h-3.4v-1.7h3.9v-1.1h-4.9c0.2-0.5,0.4-0.9,0.5-1.4l-1.2-0.3
				c-0.7,2-1.5,3.6-2.5,4.8l0.8,1c0.7-0.8,1.3-1.8,1.9-3h0.4v8.4H51.5z M47,23.3v-8.1c0.5-0.8,0.9-1.7,1.2-2.6l-1.1-0.5
				c-0.6,1.8-1.5,3.4-2.7,4.7l0.4,1.2c0.4-0.4,0.8-0.8,1.1-1.2v6.4H47z M67.4,22.8v-1.1h-3.5v-9.4h-1.1v9.4h-1.4v-9.4h-1.1v9.4h-3.5
				v1.1H67.4z M58.4,20.2l1-0.3c-0.5-2.1-1-3.9-1.6-5.5l-1,0.3C57.5,16.5,58,18.4,58.4,20.2z M65.3,20.2c0.7-1.5,1.3-3.3,1.8-5.4
				l-1-0.3c-0.5,2.2-1.1,3.9-1.8,5.3L65.3,20.2z"/>
		</g>
		<g id="编组-10备份-9" transform="translate(960.000000, 68.000000)">
			<path id="Rectangle-Copy-8复制-2备份_00000033327233799384465370000012368464204952573884_" class="st0" d="M70,0
				c9.9,0,18,8.1,18,18s-8.1,18-18,18H18C8.1,36,0,27.9,0,18S8.1,0,18,0H70z M70,1H18C8.6,1,1,8.6,1,18c0,9.3,7.4,16.8,16.7,17
				l0.3,0h52c9.4,0,17-7.6,17-17c0-9.3-7.4-16.8-16.7-17L70,1z"/>
			<path id="执行调度" class="st7" d="M24.7,23.2c1.1-0.9,1.8-2.2,2.2-3.8c0.4,0.3,0.7,0.6,1.1,1l0.7-1c-0.5-0.4-1-0.8-1.5-1.2
				c0.1-0.6,0.1-1.2,0.1-1.8v-1.2h1.4V18c0,2.1,0.1,3.4,0.4,4.1c0.3,0.7,0.7,1,1.3,1c0.3,0,0.5-0.2,0.7-0.6c0.2-0.4,0.4-1.1,0.6-2.2
				l-0.9-0.5c-0.1,0.5-0.1,0.9-0.2,1.2c-0.1,0.4-0.2,0.6-0.3,0.6c-0.2,0-0.3-0.2-0.3-0.7c-0.1-0.4-0.1-1.3-0.1-2.8l0-4.2h-2.5v-1.9
				h-1.1v1.9h-1.4v1.1h1.4v1.2c0,0.4,0,0.7-0.1,1.1c-0.3-0.2-0.6-0.4-1-0.6l-0.6,0.9c0.5,0.2,0.9,0.5,1.4,0.9
				c-0.3,1.6-1,2.9-2.1,3.8L24.7,23.2z M22,23.1c0.8,0,1.2-0.4,1.2-1.2v-3.3c0.4-0.2,0.7-0.3,1.1-0.5V17c-0.4,0.2-0.7,0.4-1.1,0.5
				v-2.1h1v-1.1h-1v-2.2H22v2.2h-1.4v1.1H22V18c-0.6,0.2-1.1,0.3-1.7,0.5l0.3,1.1c0.5-0.1,0.9-0.3,1.4-0.4v2.6
				c0,0.3-0.2,0.4-0.4,0.4c-0.3,0-0.7,0-1-0.1l0.3,1.1H22z M32.8,16.3c1.5-1.1,2.6-2.2,3.3-3.6l-1-0.5c-0.6,1.1-1.4,2.1-2.6,2.9
				L32.8,16.3z M42.9,13.9v-1.1H37v1.1H42.9z M35.4,23.2v-5.9c0.5-0.6,0.9-1.2,1.2-1.8l-1-0.5c-0.6,1.3-1.7,2.4-3,3.4l0.3,1.1
				c0.5-0.3,1-0.7,1.4-1.1v4.8H35.4z M40.3,23.2c0.9,0,1.3-0.4,1.3-1.2v-5.1h1.9v-1.1h-6.7v1.1h3.6v4.8c0,0.3-0.2,0.4-0.5,0.4
				c-0.5,0-1,0-1.6-0.1l0.3,1.1H40.3z M47.2,14.8l0.8-0.8c-0.5-0.6-1.1-1.2-1.9-1.8L45.3,13C46.1,13.7,46.7,14.3,47.2,14.8z
				 M48.4,23.2c0.7-1,1.1-2.4,1.1-4v-5.7h4.6v8c0,0.4-0.2,0.6-0.5,0.6c-0.3,0-0.7,0-1,0l0.3,1h1.1c0.8,0,1.2-0.4,1.2-1.2v-9.4h-6.7
				v6.8c0,1.3-0.3,2.3-0.9,3.2L48.4,23.2z M53.8,17.5v-0.9h-1.4v-0.9h1.2v-0.9h-1.2v-0.9h-1.1v0.9H50v0.9h1.2v0.9h-1.4v0.9H53.8z
				 M46.2,22.6c0.7-0.5,1.3-1,2-1.7l-0.3-1.1c-0.2,0.2-0.5,0.5-0.7,0.7v-4.8h-2.7v1.1H46V21c0,0.2-0.1,0.4-0.3,0.6L46.2,22.6z
				 M53.4,21.4v-3.2h-3.2v3.2H53.4z M52.4,20.5h-1.3v-1.4h1.3V20.5z M57.3,23.2c0.8-1.6,1.2-3.7,1.3-6.3v-0.7h1.8v1.8h5v-1.8h1.8
				v-1.1h-1.8v-0.8h-1.1v0.8h-2.8v-0.8h-1.1v0.8h-1.8v-1.1h8.6V13h-4c-0.1-0.3-0.3-0.6-0.4-0.9l-1.2,0.2c0.1,0.2,0.3,0.5,0.4,0.7
				h-4.5v3.9c0,2.4-0.4,4.2-1,5.5L57.3,23.2z M64.3,17.1h-2.8v-0.9h2.8V17.1z M67,23.3l0.5-1c-1.3-0.2-2.5-0.5-3.5-0.8
				c0.9-0.5,1.6-1.2,2.2-1.9v-0.8h-7.1v1h0.8c0.5,0.6,1.1,1.2,1.9,1.7c-1,0.4-2.2,0.7-3.6,0.9l0.5,1c1.6-0.3,3-0.7,4.2-1.2
				C64.1,22.6,65.4,23,67,23.3z M62.8,21c-0.7-0.4-1.2-0.8-1.7-1.2h3.5C64.1,20.2,63.5,20.6,62.8,21z"/>
		</g>
		<g id="编组-10备份-4" transform="translate(491.000000, 68.000000)">
			<path id="Rectangle-Copy-8复制-2备份_00000059276837888404716790000015339975410232668848_" class="st0" d="M98,0
				c9.9,0,18,8.1,18,18s-8.1,18-18,18H18C8.1,36,0,27.9,0,18S8.1,0,18,0H98z M98,1H18C8.6,1,1,8.6,1,18c0,9.3,7.4,16.8,16.7,17
				l0.3,0h80c9.4,0,17-7.6,17-17c0-9.3-7.4-16.8-16.7-17L98,1z"/>
			<path id="配置调度任务" class="st7" d="M23.8,23.2v-0.6h3.1v0.6h1v-8.4h-1.3v-1.1h1.5v-1.1h-5.5v1.1h1.5v1.1h-1.3v8.4H23.8
				z M31.9,23c0.6,0,1-0.2,1.2-0.6c0.2-0.4,0.3-1.2,0.4-2.5l-1.1-0.4c0,0.9-0.1,1.5-0.1,1.8C32.2,21.8,32,22,31.7,22h-1.8
				c-0.2,0-0.3-0.2-0.3-0.6v-3.7h3.2v-5.1h-4.4v1.1h3.3v2.9h-3.2v5.3c0,0.8,0.3,1.2,0.9,1.2H31.9z M25.7,14.8H25v-1.1h0.6V14.8z
				 M23.8,18.7v-2.8h0.5v0.7C24.3,17.4,24.1,18.1,23.8,18.7z M26.9,19.6h-3.1v-0.7l0.5,0.5c0.5-0.6,0.7-1.5,0.7-2.8v-0.7h0.6v2.1
				c0,0.6,0.3,0.9,0.8,0.9h0.5V19.6z M26.9,17.9h-0.2c-0.2,0-0.3-0.1-0.3-0.2v-1.8h0.5V17.9z M26.9,21.5h-3.1v-0.9h3.1V21.5z
				 M45.4,23v-0.9h-1.7v-5.2h-3.4l0.1-0.5h4.8v-0.9h-4.6l0.1-0.6l0,0h3.8v-2.4h-8.9v2.4h3.9c0,0.2,0,0.4-0.1,0.6h-4.6v0.9h4.5
				c0,0.2-0.1,0.3-0.1,0.5h-2.9v5.2h-1.7V23H45.4z M43.3,14.2h-1.5v-0.8h1.5V14.2z M40.8,14.2h-1.6v-0.8h1.6V14.2z M38.2,14.2h-1.5
				v-0.8h1.5V14.2z M42.6,18.3h-5.2v-0.6h5.2V18.3z M42.6,19.5h-5.2v-0.6h5.2V19.5z M42.6,20.8h-5.2v-0.6h5.2V20.8z M42.6,22.1h-5.2
				v-0.6h5.2V22.1z M49.2,14.8l0.8-0.8c-0.5-0.6-1.1-1.2-1.9-1.8L47.3,13C48.1,13.7,48.7,14.3,49.2,14.8z M50.4,23.2
				c0.7-1,1.1-2.4,1.1-4v-5.7h4.6v8c0,0.4-0.2,0.6-0.5,0.6c-0.3,0-0.7,0-1,0l0.3,1h1.1c0.8,0,1.2-0.4,1.2-1.2v-9.4h-6.7v6.8
				c0,1.3-0.3,2.3-0.9,3.2L50.4,23.2z M55.8,17.5v-0.9h-1.4v-0.9h1.2v-0.9h-1.2v-0.9h-1.1v0.9H52v0.9h1.2v0.9h-1.4v0.9H55.8z
				 M48.2,22.6c0.7-0.5,1.3-1,2-1.7l-0.3-1.1c-0.2,0.2-0.5,0.5-0.7,0.7v-4.8h-2.7v1.1H48V21c0,0.2-0.1,0.4-0.3,0.6L48.2,22.6z
				 M55.4,21.4v-3.2h-3.2v3.2H55.4z M54.4,20.5h-1.3v-1.4h1.3V20.5z M59.3,23.2c0.8-1.6,1.2-3.7,1.3-6.3v-0.7h1.8v1.8h5v-1.8h1.8
				v-1.1h-1.8v-0.8h-1.1v0.8h-2.8v-0.8h-1.1v0.8h-1.8v-1.1h8.6V13h-4c-0.1-0.3-0.3-0.6-0.4-0.9l-1.2,0.2c0.1,0.2,0.3,0.5,0.4,0.7
				h-4.5v3.9c0,2.4-0.4,4.2-1,5.5L59.3,23.2z M66.3,17.1h-2.8v-0.9h2.8V17.1z M69,23.3l0.5-1c-1.3-0.2-2.5-0.5-3.5-0.8
				c0.9-0.5,1.6-1.2,2.2-1.9v-0.8h-7.1v1h0.8c0.5,0.6,1.1,1.2,1.9,1.7c-1,0.4-2.2,0.7-3.6,0.9l0.5,1c1.6-0.3,3-0.7,4.2-1.2
				C66.1,22.6,67.4,23,69,23.3z M64.8,21c-0.7-0.4-1.2-0.8-1.7-1.2h3.5C66.1,20.2,65.5,20.6,64.8,21z M73,23.3v-8
				c0.5-0.8,0.9-1.7,1.2-2.6l-1.1-0.5c-0.6,1.8-1.5,3.4-2.7,4.7l0.4,1.2c0.4-0.4,0.8-0.8,1.1-1.2v6.4H73z M80.9,22.8v-1.1h-2.8v-3.4
				h3.4v-1.1h-3.4v-3.1c1.1-0.1,2.1-0.3,2.9-0.6l-0.6-1c-1.7,0.5-3.7,0.7-6.2,0.7l0.4,1.1c0.8,0,1.6,0,2.3-0.1v3h-3.4v1.1h3.4v3.4
				h-2.8v1.1H80.9z M83,18.2c1.9-0.3,3.6-0.8,5-1.4c1.5,0.7,3.2,1.2,5,1.4l0.5-1.1c-1.6-0.1-3-0.5-4.3-0.9c1-0.6,1.9-1.3,2.6-2.1
				v-0.9h-5.1c0.1-0.3,0.3-0.5,0.4-0.8L86,12.1c-0.5,1.2-1.4,2.1-2.8,3l0.7,0.9c0.5-0.3,0.9-0.6,1.3-1c0.5,0.4,1,0.8,1.6,1.1
				c-1.2,0.5-2.7,0.8-4.3,1L83,18.2z M88,15.6c-0.8-0.4-1.5-0.8-2.1-1.4c0,0,0,0,0.1-0.1h4.2C89.6,14.7,88.8,15.2,88,15.6z
				 M83.3,23.3c2.2-0.7,3.6-1.6,4.2-2.7c0.1-0.3,0.3-0.5,0.4-0.8h3.3c0,1.1-0.1,1.7-0.3,2c-0.2,0.2-0.5,0.4-1.2,0.4
				c-0.4,0-0.9,0-1.5-0.1l0.3,1c0.6,0,1.1,0.1,1.5,0.1c0.8,0,1.4-0.2,1.8-0.6c0.3-0.4,0.5-1.7,0.5-3.8h-4.1c0.1-0.4,0.1-0.8,0.1-1.2
				h-1.1c0,0.4,0,0.8-0.1,1.2h-3.7v1h3.4c-0.1,0.2-0.2,0.3-0.3,0.5c-0.6,0.8-1.9,1.5-3.8,2.1L83.3,23.3z"/>
		</g>
		<g id="编组-10备份-10" transform="translate(1180.000000, 68.000000)">
			<path id="Rectangle-Copy-8复制-2备份_00000065054974132927058190000007885753698679773361_" class="st4" d="M18,0h24
				c9.9,0,18,8.1,18,18l0,0c0,9.9-8.1,18-18,18H18C8.1,36,0,27.9,0,18l0,0C0,8.1,8.1,0,18,0z"/>
			<path id="运维" class="st5" d="M20.8,14.9l0.8-0.8c-0.6-0.6-1.2-1.2-2-1.9L18.8,13C19.7,13.7,20.4,14.3,20.8,14.9z M28.5,13.8
				v-1.1h-5.6v1.1H28.5z M28.2,21.2l1-0.3c-0.5-1.4-1.1-2.7-1.7-3.8l-0.9,0.3c0.3,0.5,0.6,1.1,0.8,1.7c-0.9,0.2-2.1,0.4-3.4,0.6
				c0.5-0.8,1.1-1.8,1.6-3.3h3.7v-1.1h-7.2v1.1h2.4c-0.9,2.2-1.6,3.3-2.1,3.5l0.3,1c2.1-0.2,3.8-0.5,5.1-0.8
				C28,20.5,28.1,20.9,28.2,21.2z M19.5,23.3c0.6-1.1,1-1.6,1.3-1.6c0.1,0,0.3,0.1,0.4,0.3c0.4,0.4,0.8,0.7,1.2,0.8
				c0.5,0.1,1.1,0.2,1.9,0.2c0.8,0,1.5,0,2.1,0h2.8l0.3-1.1c-0.3,0-0.8,0-1.4,0.1c-0.6,0-1.2,0-1.8,0c-0.9,0-1.7,0-2.4,0
				c-0.7,0-1.2-0.1-1.6-0.3c-0.3-0.2-0.6-0.4-0.9-0.7c-0.1-0.1-0.1-0.1-0.2-0.2v-4.5h-2.7v1.1h1.6v3.4c-0.5,0.2-1,0.9-1.6,1.8
				L19.5,23.3z M31,20.3c1.1-0.2,2.2-0.5,3.4-1v-1c-0.7,0.3-1.4,0.6-2.1,0.8c0.6-0.9,1.4-2.3,2.3-4.2l-1-0.4c-0.2,0.5-0.4,1-0.6,1.4
				c-0.4,0.1-0.8,0.1-1.2,0.2c0.6-0.9,1.1-2.1,1.6-3.5l-1.1-0.4c-0.4,1.3-0.9,2.5-1.4,3.6c-0.1,0.2-0.3,0.3-0.5,0.4l0.3,1
				c0.6-0.1,1.2-0.2,1.7-0.3c-0.5,1-0.9,1.7-1.3,2.1c-0.1,0.1-0.3,0.2-0.5,0.3L31,20.3z M36.6,23.2v-0.6h5v-1.1h-2V20h1.6v-1h-1.6
				v-1.3h1.6v-1h-1.6v-1.4h1.8v-1.1h-1.7c-0.1-0.6-0.4-1.3-0.6-2l-1.1,0.3c0.2,0.5,0.5,1.1,0.6,1.7h-1.9c0.2-0.6,0.4-1.1,0.5-1.7
				l-1.1-0.2c-0.4,1.6-1,3.1-1.9,4.5l0.3,1.2c0.3-0.4,0.6-0.9,0.9-1.3v6.7H36.6z M38.4,16.6h-1.9v-1.4h1.9V16.6z M38.4,19h-1.9v-1.3
				h1.9V19z M38.4,21.5h-1.9V20h1.9V21.5z M30.7,22.8c1.5-0.3,2.9-0.6,4-1.1v-1.1c-1.2,0.4-2.6,0.8-4.2,1L30.7,22.8z"/>
		</g>
		<g id="编组" transform="translate(0.000000, 136.000000)">
			<path id="Rectangle-Copy-8复制-2备份-2" class="st0" d="M70,0c9.9,0,18,8.1,18,18s-8.1,18-18,18H18C8.1,36,0,27.9,0,18
				S8.1,0,18,0H70z M70,1H18C8.6,1,1,8.6,1,18c0,9.3,7.4,16.8,16.7,17l0.3,0h52c9.4,0,17-7.6,17-17c0-9.3-7.4-16.8-16.7-17L70,1z"/>
			<path id="导入作业" class="st7" d="M30,17.8c0.5,0,0.9-0.2,1-0.6c0.1-0.2,0.2-0.6,0.2-1.2l-1.1-0.3c0,0.5-0.1,0.8-0.2,0.9
				c-0.1,0.1-0.2,0.2-0.4,0.2h-6.3c-0.3,0-0.5-0.2-0.5-0.5v-0.6h6.9v-3h-8v4.1c0,0.7,0.4,1.1,1.2,1.1H30z M28.6,14.6h-5.7v-1h5.7
				V14.6z M27.7,23.3c0.8,0,1.2-0.4,1.2-1.1v-2.3h2.6v-1.1h-2.6v-0.6h-1.2v0.6h-7.2v1.1h7.2v2c0,0.2-0.2,0.4-0.5,0.4
				c-0.4,0-0.9,0-1.4-0.1l0.3,1.1H27.7z M24.6,22.6l0.9-0.9c-0.5-0.6-1.2-1.2-2-1.8l-0.8,0.8C23.5,21.4,24.2,22.1,24.6,22.6z
				 M33.1,23.1c2.4-1.6,4-3.8,4.9-6.7c0,0.1,0,0.1,0.1,0.2c1.3,3.2,2.8,5.4,4.7,6.5l0.7-0.9c-1.8-1.2-3.3-3.2-4.4-6
				c-0.8-2-1.7-3.3-2.7-4l-0.9,0.6c0.8,0.5,1.4,1.3,1.9,2.3c-0.8,3.1-2.4,5.4-4.9,7.1L33.1,23.1z M51.5,23.3v-2.7h3.4v-1.1h-3.4
				v-1.8h3.4v-1.1h-3.4v-1.7h3.9v-1.1h-4.9c0.2-0.5,0.4-0.9,0.5-1.4l-1.2-0.3c-0.7,2-1.5,3.6-2.5,4.8l0.8,1c0.7-0.8,1.3-1.8,1.9-3
				h0.4v8.4H51.5z M47,23.3v-8.1c0.5-0.8,0.9-1.7,1.2-2.6l-1.1-0.5c-0.6,1.8-1.5,3.4-2.7,4.7l0.4,1.2c0.4-0.4,0.8-0.8,1.1-1.2v6.4
				H47z M67.4,22.8v-1.1h-3.5v-9.4h-1.1v9.4h-1.4v-9.4h-1.1v9.4h-3.5v1.1H67.4z M58.4,20.2l1-0.3c-0.5-2.1-1-3.9-1.6-5.5l-1,0.3
				C57.5,16.5,58,18.4,58.4,20.2z M65.3,20.2c0.7-1.5,1.3-3.3,1.8-5.4l-1-0.3c-0.5,2.2-1.1,3.9-1.8,5.3L65.3,20.2z"/>
		</g>
		<g id="编组-7">
			<path id="Rectangle-Copy-8复制-2备份-3" class="st0" d="M70,0c9.9,0,18,8.1,18,18s-8.1,18-18,18H18C8.1,36,0,27.9,0,18
				S8.1,0,18,0H70z M70,1H18C8.6,1,1,8.6,1,18c0,9.3,7.4,16.8,16.7,17l0.3,0h52c9.4,0,17-7.6,17-17c0-9.3-7.4-16.8-16.7-17L70,1z"/>
			<path id="新建作业" class="st7" d="M26.2,14.2v-1.1H24c-0.1-0.4-0.3-0.8-0.4-1.1l-1.2,0.2c0.2,0.3,0.3,0.6,0.5,0.9h-2.1v1.1
				H26.2z M30.4,23.2V17h1.2v-1.1h-3.7v-1.9c1.2-0.1,2.4-0.3,3.4-0.7l-0.6-1c-1.2,0.5-2.5,0.7-4,0.7v5.2c0,1.8-0.4,3.2-1.1,4.2
				l0.8,0.9c0.9-1.3,1.3-2.9,1.4-5.1V17h1.4v6.3H30.4z M22.8,23.3c0.8,0,1.2-0.4,1.2-1.1V19h2v-1h-2v-1.1h2.2v-1H25
				c0.2-0.4,0.3-0.8,0.5-1.2l-1-0.4c-0.1,0.5-0.3,1.1-0.5,1.6h-1.1c-0.2-0.6-0.4-1.1-0.6-1.5l-1,0.4c0.2,0.4,0.4,0.8,0.5,1.2h-1.3v1
				h2.3V18h-2.1v1h2.1v3c0,0.2-0.1,0.4-0.4,0.4c-0.2,0-0.3,0-0.5-0.1l0.3,1.1H22.8z M25,21.9l1-0.4c-0.2-0.6-0.4-1.3-0.7-2.1
				l-0.9,0.3C24.6,20.4,24.8,21.1,25,21.9z M21.3,22.9c0.5-0.9,0.9-2,1.2-3.2l-1-0.2c-0.2,1-0.6,1.9-1.1,2.8L21.3,22.9z M40.1,21.5
				v-1h3.1v-0.9h-3.1v-0.7h2.7v-0.9h-2.7v-0.7h2.5v-1.7h0.7v-0.9h-0.7v-1.7h-2.5v-0.8h-1.1v0.8h-2v0.9h2v0.7h-2.6v0.9h2.6v0.7h-2
				v0.9h2v0.7h-2.3v0.9h2.3v0.7h-2.6v0.9h2.6v1H40.1z M33.4,23.2c0.5-0.4,0.9-0.9,1.3-1.4c0.1,0.1,0.2,0.2,0.3,0.2
				c0.9,0.6,2.5,0.9,4.7,0.9h3.5l0.2-1.1c-1.4,0-2.8,0.1-4.2,0.1c-1.6,0-2.7-0.3-3.5-0.7c-0.2-0.1-0.3-0.2-0.5-0.4
				c0.6-1.1,0.9-2.4,0.9-4v-0.7h-1.7c0.5-0.8,1.1-1.6,1.6-2.6v-0.9h-3.1v1.1h1.8c-0.6,0.9-1.1,1.8-1.8,2.7v0.9h2.2
				c-0.1,1-0.3,1.8-0.6,2.6c-0.3-0.5-0.5-1.1-0.7-1.8l-1,0.3c0.3,1,0.6,1.8,1.1,2.5c-0.3,0.5-0.8,0.9-1.3,1.3L33.4,23.2z M41.5,14.6
				h-1.5v-0.7h1.5V14.6z M41.5,16.3h-1.5v-0.7h1.5V16.3z M51.5,23.3v-2.7h3.4v-1.1h-3.4v-1.8h3.4v-1.1h-3.4v-1.7h3.9v-1.1h-4.9
				c0.2-0.5,0.4-0.9,0.5-1.4l-1.2-0.3c-0.7,2-1.5,3.6-2.5,4.8l0.8,1c0.7-0.8,1.3-1.8,1.9-3h0.4v8.4H51.5z M47,23.3v-8.1
				c0.5-0.8,0.9-1.7,1.2-2.6l-1.1-0.5c-0.6,1.8-1.5,3.4-2.7,4.7l0.4,1.2c0.4-0.4,0.8-0.8,1.1-1.2v6.4H47z M67.4,22.8v-1.1h-3.5v-9.4
				h-1.1v9.4h-1.4v-9.4h-1.1v9.4h-3.5v1.1H67.4z M58.4,20.2l1-0.3c-0.5-2.1-1-3.9-1.6-5.5l-1,0.3C57.5,16.5,58,18.4,58.4,20.2z
				 M65.3,20.2c0.7-1.5,1.3-3.3,1.8-5.4l-1-0.3c-0.5,2.2-1.1,3.9-1.8,5.3L65.3,20.2z"/>
		</g>
		<path id="路径-6备份-3" class="st0" d="M257.7,76.8c0.2-0.2,0.4-0.2,0.6,0l0.1,0.1l8,8.4c0.2,0.2,0.2,0.4,0.1,0.6l-0.1,0.1
			l-8,8c-0.2,0.2-0.5,0.2-0.7,0c-0.2-0.2-0.2-0.4-0.1-0.6l0.1-0.1l7.7-7.7l-7.7-8.1C257.5,77.3,257.5,77,257.7,76.8L257.7,76.8z"/>
	</g>
</g>
</svg>
